<?xml version="1.0" encoding="UTF-8"?>
<svg version="1.1" xmlns="http://www.w3.org/2000/svg" width="512" height="512">
<path d="M0 0 C2.47980387 2.19672124 4.90517849 4.439372 7.31640625 6.7109375 C7.98027344 7.31035156 8.64414062 7.90976563 9.328125 8.52734375 C26.28257767 24.45008531 36.05170452 45.6928138 42.31640625 67.7109375 C42.67863281 68.95359375 43.04085938 70.19625 43.4140625 71.4765625 C46.5600381 84.76282225 48.42609091 106.44299764 44.31640625 119.7109375 C44.96222656 119.72511719 45.60804688 119.73929688 46.2734375 119.75390625 C87.23564263 121.82723264 127.46607548 147.68306352 158.31640625 172.7109375 C159.36540521 173.54487523 160.41489431 174.37819676 161.46484375 175.2109375 C169.0261208 181.27550932 169.0261208 181.27550932 171.31640625 184.7109375 C171.57646847 187.0963726 171.57646847 187.0963726 171.59056091 189.97335815 C171.60053604 191.06409637 171.61051117 192.15483459 171.62078857 193.27862549 C171.62145325 194.47558044 171.62211792 195.6725354 171.62280273 196.90576172 C171.63112625 198.16613251 171.63944977 199.4265033 171.64802551 200.72506714 C171.66997962 204.18380146 171.6787706 207.64244737 171.68385196 211.1012435 C171.68749448 213.26235218 171.69373399 215.42343766 171.70085335 217.58453751 C171.72535109 225.12456531 171.73840042 232.66452428 171.74194336 240.20458984 C171.74557885 247.23193161 171.77547388 254.25883667 171.81734794 261.28604496 C171.85204298 267.32011915 171.86749166 273.35404858 171.86818939 279.38822186 C171.8689825 282.99183487 171.87773548 286.59500311 171.90618706 290.19851303 C171.93721642 294.21843015 171.92831212 298.23730697 171.91577148 302.25732422 C171.93802292 304.04668396 171.93802292 304.04668396 171.96072388 305.87219238 C171.95096024 306.96857025 171.94119659 308.06494812 171.93113708 309.19454956 C171.93314841 310.14470884 171.93515974 311.09486813 171.93723202 312.07382011 C171.02426579 315.95187937 169.51342564 317.37009174 166.31640625 319.7109375 C163.2685823 320.20309447 160.78198155 320.38812998 157.73840332 320.34585571 C156.87602948 320.35365567 156.01365563 320.36145562 155.12514925 320.36949193 C152.23599282 320.38943285 149.34815053 320.37363927 146.45898438 320.35791016 C144.38756033 320.36468534 142.31614231 320.37358791 140.24473572 320.38446045 C134.61869248 320.40727197 128.99310723 320.39840958 123.36705589 320.38256502 C117.48236217 320.36991575 111.59770794 320.38164344 105.7130127 320.38949585 C95.83025056 320.39859522 85.94767519 320.38659683 76.06494141 320.36279297 C64.63530718 320.33558129 53.20611888 320.34439524 41.77649546 320.371925 C31.96744164 320.39460675 22.15852215 320.39782067 12.34945059 320.38473165 C6.48908267 320.37693206 0.62892443 320.37590967 -5.23143005 320.39241409 C-10.74077186 320.40684585 -16.24953812 320.3968603 -21.75881767 320.36794281 C-23.78208396 320.36132514 -25.80539858 320.36324123 -27.82864571 320.37425613 C-30.5882837 320.38789617 -33.34607115 320.37081487 -36.10559082 320.34585571 C-36.9086061 320.35700932 -37.71162139 320.36816293 -38.53897047 320.37965453 C-42.60121604 320.30825836 -44.45861787 319.8899968 -47.67821503 317.32750511 C-49.8567914 314.48495357 -50.36376259 313.24174347 -50.30859375 309.7109375 C-50.32148438 308.8859375 -50.334375 308.0609375 -50.34765625 307.2109375 C-49.36762521 303.52140886 -47.64128184 302.08949665 -44.68359375 299.7109375 C-41.80096086 299.2285134 -39.51605507 299.05369757 -36.6414032 299.10966492 C-35.83675481 299.10539279 -35.03210642 299.10112067 -34.20307475 299.09671909 C-31.50940822 299.08848939 -28.81730211 299.11597261 -26.1237793 299.14331055 C-24.19203223 299.14472103 -22.26028249 299.14392904 -20.32853699 299.14109802 C-15.08496405 299.13966246 -9.8419621 299.16907518 -4.59852195 299.20396781 C0.88140744 299.23520783 6.36134968 299.2381602 11.84135437 299.24409485 C22.21819263 299.25964018 32.59476774 299.30067814 42.97149009 299.3508423 C54.78512886 299.40671418 66.59878015 299.43421687 78.41251814 299.45931947 C102.71396011 299.51159324 127.01516844 299.5995491 151.31640625 299.7109375 C151.53381226 286.22786688 151.66944897 272.74663955 151.7024374 259.2617836 C151.72029092 252.99898446 151.76566081 246.73896989 151.87524414 240.47705078 C151.98009195 234.42662908 152.01092174 228.37982984 151.9917469 222.32857513 C151.99720935 220.02725834 152.02876585 217.72584238 152.08755302 215.42527008 C152.8352575 202.11684429 152.8352575 202.11684429 147.10769653 190.73425293 C144.04453947 188.05717073 140.77592472 185.89762238 137.25546455 183.87177277 C134.66148841 182.31886485 132.31448794 180.50950953 129.93483639 178.65013504 C124.60492023 174.5628822 124.60492023 174.5628822 118.25390625 172.8984375 C116.33358915 173.12331237 116.33358915 173.12331237 114.31640625 173.7109375 C112.99962891 174.04738281 112.99962891 174.04738281 111.65625 174.390625 C97.60781756 178.57368921 85.83784535 185.90912381 74.31640625 194.7109375 C73.73890625 195.14954102 73.16140625 195.58814453 72.56640625 196.04003906 C62.96687288 203.36289739 53.83235271 211.19513374 44.71289062 219.10107422 C36.19903836 226.46189855 27.40287652 233.38755098 18.40234375 240.14404297 C17.06647287 241.14750965 15.73291303 242.15406487 14.40234375 243.16455078 C-12.49354521 263.58682817 -41.61676172 279.25715356 -74.68359375 286.7109375 C-75.39241699 286.87754883 -76.10124023 287.04416016 -76.83154297 287.21582031 C-128.43901255 298.81759262 -193.24895535 284.72521356 -238.6171875 259.05078125 C-243.72014375 256.82108189 -249.16700869 256.10418321 -254.62109375 255.0859375 C-265.4990529 252.94142555 -276.16328333 250.37413661 -286.80859375 247.2734375 C-288.01378662 246.92651855 -289.21897949 246.57959961 -290.46069336 246.22216797 C-300.7590771 243.16661122 -310.54378201 239.44665761 -320.68359375 235.7109375 C-320.68359375 256.8309375 -320.68359375 277.9509375 -320.68359375 299.7109375 C-311.81673706 299.67166138 -311.81673706 299.67166138 -302.77075195 299.6315918 C-283.2728716 299.54886309 -263.77498448 299.49330729 -244.27697468 299.45187664 C-232.45156733 299.42608201 -220.62632612 299.39090725 -208.80102539 299.33374023 C-198.4955143 299.28394403 -188.19012349 299.25165565 -177.88449544 299.24049503 C-172.42639381 299.23396991 -166.96863636 299.21860758 -161.51064491 299.18228722 C-156.37490657 299.1483877 -151.23965467 299.1378724 -146.10381508 299.14539909 C-144.2175838 299.14402185 -142.33133651 299.13405347 -140.44520187 299.11491013 C-137.87146282 299.090066 -135.29956511 299.09599993 -132.7257843 299.10966492 C-131.97772264 299.09510071 -131.22966098 299.0805365 -130.45893079 299.06553096 C-126.51456652 299.12221792 -124.83708813 299.58749803 -121.72246075 302.09226704 C-119.50693363 304.9378354 -119.00308347 306.15827965 -119.05859375 309.7109375 C-119.04570312 310.5359375 -119.0328125 311.3609375 -119.01953125 312.2109375 C-120.00470502 315.91982699 -121.6945518 317.33194572 -124.68359375 319.7109375 C-127.7314177 320.20309447 -130.21801845 320.38812998 -133.26159668 320.34585571 C-134.12397052 320.35365567 -134.98634437 320.36145562 -135.87485075 320.36949193 C-138.76400718 320.38943285 -141.65184947 320.37363927 -144.54101562 320.35791016 C-146.61243967 320.36468534 -148.68385769 320.37358791 -150.75526428 320.38446045 C-156.38130752 320.40727197 -162.00689277 320.39840958 -167.63294411 320.38256502 C-173.51763783 320.36991575 -179.40229206 320.38164344 -185.2869873 320.38949585 C-195.16974944 320.39859522 -205.05232481 320.38659683 -214.93505859 320.36279297 C-226.36469282 320.33558129 -237.79388112 320.34439524 -249.22350454 320.371925 C-259.03255836 320.39460675 -268.84147785 320.39782067 -278.65054941 320.38473165 C-284.51091733 320.37693206 -290.37107557 320.37590967 -296.23143005 320.39241409 C-301.74077186 320.40684585 -307.24953812 320.3968603 -312.75881767 320.36794281 C-314.78208396 320.36132514 -316.80539858 320.36324123 -318.82864571 320.37425613 C-321.5882837 320.38789617 -324.34607115 320.37081487 -327.10559082 320.34585571 C-327.9086061 320.35700932 -328.71162139 320.36816293 -329.53897047 320.37965453 C-333.47030571 320.31055918 -335.47808143 319.86153391 -338.68003654 317.51518822 C-340.91121332 314.39235297 -341.31097722 312.99535452 -341.31851196 309.20800781 C-341.33261108 308.11452026 -341.34671021 307.02103271 -341.36123657 305.89440918 C-341.34605484 304.10976257 -341.34605484 304.10976257 -341.33056641 302.2890625 C-341.339328 301.02839966 -341.3480896 299.76773682 -341.3571167 298.46887207 C-341.37987519 295.01828385 -341.37108887 291.56844463 -341.35522127 288.11784363 C-341.34254397 284.50334689 -341.35430744 280.88891338 -341.3621521 277.27441406 C-341.37124341 271.20496124 -341.35927466 265.13581283 -341.33544922 259.06640625 C-341.30823852 252.05373362 -341.31705308 245.04178786 -341.34458125 238.02913284 C-341.36728639 232.00346285 -341.37046566 225.97801142 -341.3573879 219.95231247 C-341.34960095 216.35549763 -341.34853048 212.75902422 -341.36507034 209.16223145 C-341.382224 205.15198873 -341.35843714 201.14299489 -341.33056641 197.1328125 C-341.34068756 195.9430481 -341.35080872 194.75328369 -341.36123657 193.52746582 C-341.25759559 185.48936772 -341.25759559 185.48936772 -338.35946655 181.55908203 C-335.1388865 179.33472465 -331.84100018 177.49983605 -328.30859375 175.8359375 C-327.60452393 175.49570557 -326.9004541 175.15547363 -326.17504883 174.80493164 C-324.71910513 174.10390965 -323.26083503 173.40769907 -321.80029297 172.71630859 C-319.84811906 171.78908228 -317.90744966 170.84170978 -315.96875 169.88671875 C-302.37189788 163.31712136 -288.4095138 158.25557767 -273.80859375 154.3984375 C-272.89464844 154.15601318 -271.98070312 153.91358887 -271.0390625 153.66381836 C-258.76672199 150.54841341 -246.89960286 149.36722509 -234.24609375 149.3984375 C-232.94349609 149.38232422 -231.64089844 149.36621094 -230.29882812 149.34960938 C-221.32453613 149.34514233 -213.36513281 150.48388637 -204.68359375 152.7109375 C-205.0703125 151.71578125 -205.45703125 150.720625 -205.85546875 149.6953125 C-218.85699536 115.31024614 -218.45367582 78.49468867 -203.68359375 44.7109375 C-197.27465784 30.66638091 -188.24990433 18.92689467 -177.68359375 7.7109375 C-177.08417969 7.04707031 -176.48476562 6.38320312 -175.8671875 5.69921875 C-159.94444594 -11.25523392 -138.70171745 -21.02436077 -116.68359375 -27.2890625 C-115.4409375 -27.65128906 -114.19828125 -28.01351562 -112.91796875 -28.38671875 C-73.58186922 -37.70088329 -30.36775036 -25.90320482 0 0 Z M-153.68359375 14.7109375 C-154.48667969 15.39671875 -155.28976563 16.0825 -156.1171875 16.7890625 C-166.27429952 25.63208849 -174.07209836 34.95872429 -180.68359375 46.7109375 C-181.5034375 48.16306641 -181.5034375 48.16306641 -182.33984375 49.64453125 C-195.39904444 74.19716112 -197.87971531 104.57208369 -190.1640625 131.17578125 C-188.12520921 137.60414992 -185.69840197 143.6665426 -182.68359375 149.7109375 C-182.26078125 150.80664062 -181.83796875 151.90234375 -181.40234375 153.03125 C-176.29937809 164.04428304 -166.83326042 167.07170264 -156.234375 171.73046875 C-150.22797651 174.38295177 -144.68522067 177.48781265 -139.12109375 180.9609375 C-129.38450272 186.99253176 -119.4048635 192.6014565 -108.68359375 196.7109375 C-102.97247182 192.15649849 -97.41976099 187.60559541 -92.32421875 182.3671875 C-89.27402894 179.28794826 -85.99412709 176.50500698 -82.68359375 173.7109375 C-82.17812012 173.27571777 -81.67264648 172.84049805 -81.15185547 172.39208984 C-53.54041043 148.70349521 -21.41824256 129.58601514 14.31640625 121.7109375 C15.79947266 121.37255859 15.79947266 121.37255859 17.3125 121.02734375 C19.31085239 120.57529836 21.3130427 120.14022969 23.31640625 119.7109375 C26.44648727 102.80503435 25.5380748 84.10105571 20.31640625 67.7109375 C19.95417969 66.57140625 19.59195313 65.431875 19.21875 64.2578125 C9.3255927 36.48989981 -10.7569799 13.35403662 -37.36303711 0.4309082 C-74.71917651 -16.66034019 -122.25842185 -13.52798436 -153.68359375 14.7109375 Z M-77.05078125 196.9375 C-106.7373589 225.33821835 -142.10966248 246.5969988 -181.68359375 257.7109375 C-178.83681432 259.60879045 -177.0584295 260.28364495 -173.80859375 261.11328125 C-172.34462158 261.48706909 -172.34462158 261.48706909 -170.85107422 261.8684082 C-169.80580566 262.12581787 -168.76053711 262.38322754 -167.68359375 262.6484375 C-166.60867676 262.91422607 -165.53375977 263.18001465 -164.42626953 263.45385742 C-115.98916303 275.14891179 -66.82174255 270.16610655 -23.86181641 243.99169922 C-17.68035406 240.07266282 -11.65000687 235.94887479 -5.68359375 231.7109375 C-5.08369629 231.28570801 -4.48379883 230.86047852 -3.86572266 230.42236328 C8.40498931 221.64152118 19.96165672 211.79969811 31.38061523 201.94995117 C36.61425988 197.43844632 41.94277411 193.05480477 47.31640625 188.7109375 C48.47943693 187.75423471 49.64218103 186.79718345 50.8046875 185.83984375 C64.4469684 174.67243437 78.59365875 165.67815594 94.31640625 157.7109375 C90.89251929 154.85769837 87.12424929 153.09342156 83.06640625 151.3359375 C82.36692871 151.03212158 81.66745117 150.72830566 80.94677734 150.4152832 C21.83213432 125.33614359 -34.00380352 155.58243043 -77.05078125 196.9375 Z M-320.68359375 195.7109375 C-320.68359375 201.3209375 -320.68359375 206.9309375 -320.68359375 212.7109375 C-294.0355131 223.55582334 -267.10787898 231.90083958 -238.68359375 236.7109375 C-237.59570557 236.897771 -237.59570557 236.897771 -236.48583984 237.08837891 C-198.70020856 243.38442954 -163.4219299 235.59242768 -131.68359375 213.7109375 C-130.65935014 212.73578366 -129.65141505 211.74211252 -128.68359375 210.7109375 C-129.24119385 210.39455322 -129.79879395 210.07816895 -130.37329102 209.75219727 C-132.99862163 208.26113893 -135.62253877 206.76761794 -138.24609375 205.2734375 C-139.20612305 204.72719727 -140.16615234 204.18095703 -141.15527344 203.61816406 C-146.03523006 200.83171372 -150.88050647 198.00864869 -155.66040039 195.05395508 C-210.78394624 161.07514264 -265.00905916 167.28417513 -320.68359375 195.7109375 Z " fill="#000000" transform="translate(340.68359375,171.2890625)"/>
<path d="M0 0 C0.73397003 -0.0087616 1.46794006 -0.01752319 2.22415161 -0.02655029 C4.64092814 -0.04848742 7.05586241 -0.03401381 9.47265625 -0.01708984 C11.15747426 -0.02045966 12.8422899 -0.02531367 14.52709961 -0.03158569 C18.05443517 -0.03894924 21.58113671 -0.0282688 25.10839844 -0.00488281 C29.62479619 0.02360539 34.13970837 0.00719854 38.65605164 -0.02274513 C42.13402454 -0.04083254 45.61164652 -0.03505363 49.08963013 -0.02210617 C50.75456926 -0.01877611 52.41954049 -0.02284521 54.08444214 -0.03450394 C56.41392108 -0.04723743 58.74101108 -0.02780549 61.0703125 0 C61.75513702 -0.01012115 62.43996155 -0.02024231 63.14553833 -0.03067017 C66.9511739 0.05328253 68.46938693 0.59336457 71.46020508 3.03115845 C73.71744714 5.87678004 74.21601857 7.07178386 74.16015625 10.64697266 C74.17949219 11.88447266 74.17949219 11.88447266 74.19921875 13.14697266 C73.22489042 16.81503227 71.45642634 18.26586688 68.53515625 20.64697266 C65.83508749 21.14346324 63.7624969 21.33373363 61.0703125 21.29394531 C59.96935745 21.30708771 59.96935745 21.30708771 58.84616089 21.32049561 C56.42938436 21.34243273 54.01445009 21.32795912 51.59765625 21.31103516 C49.91283824 21.31440498 48.2280226 21.31925898 46.54321289 21.32553101 C43.01587733 21.33289456 39.48917579 21.32221412 35.96191406 21.29882812 C31.44551631 21.27033992 26.93060413 21.28674677 22.41426086 21.31669044 C18.93628796 21.33477785 15.45866598 21.32899894 11.98068237 21.31605148 C10.31574324 21.31272142 8.65077201 21.31679052 6.98587036 21.32844925 C4.65639142 21.34118275 2.32930142 21.32175081 0 21.29394531 C-0.68482452 21.30406647 -1.36964905 21.31418762 -2.07522583 21.32461548 C-5.8808614 21.24066278 -7.39907443 20.70058074 -10.38989258 18.26278687 C-12.64713464 15.41716527 -13.14570607 14.22216146 -13.08984375 10.64697266 C-13.10273438 9.82197266 -13.115625 8.99697266 -13.12890625 8.14697266 C-11.33775661 1.40382107 -6.30093879 -0.0931228 0 0 Z " fill="#000000" transform="translate(438.46484375,260.35302734375)"/>
<path d="M0 0 C0.73397003 -0.0087616 1.46794006 -0.01752319 2.22415161 -0.02655029 C4.64092814 -0.04848742 7.05586241 -0.03401381 9.47265625 -0.01708984 C11.15747426 -0.02045966 12.8422899 -0.02531367 14.52709961 -0.03158569 C18.05443517 -0.03894924 21.58113671 -0.0282688 25.10839844 -0.00488281 C29.62479619 0.02360539 34.13970837 0.00719854 38.65605164 -0.02274513 C42.13402454 -0.04083254 45.61164652 -0.03505363 49.08963013 -0.02210617 C50.75456926 -0.01877611 52.41954049 -0.02284521 54.08444214 -0.03450394 C56.41392108 -0.04723743 58.74101108 -0.02780549 61.0703125 0 C61.75513702 -0.01012115 62.43996155 -0.02024231 63.14553833 -0.03067017 C66.9511739 0.05328253 68.46938693 0.59336457 71.46020508 3.03115845 C73.71744714 5.87678004 74.21601857 7.07178386 74.16015625 10.64697266 C74.17949219 11.88447266 74.17949219 11.88447266 74.19921875 13.14697266 C73.22489042 16.81503227 71.45642634 18.26586688 68.53515625 20.64697266 C65.83508749 21.14346324 63.7624969 21.33373363 61.0703125 21.29394531 C59.96935745 21.30708771 59.96935745 21.30708771 58.84616089 21.32049561 C56.42938436 21.34243273 54.01445009 21.32795912 51.59765625 21.31103516 C49.91283824 21.31440498 48.2280226 21.31925898 46.54321289 21.32553101 C43.01587733 21.33289456 39.48917579 21.32221412 35.96191406 21.29882812 C31.44551631 21.27033992 26.93060413 21.28674677 22.41426086 21.31669044 C18.93628796 21.33477785 15.45866598 21.32899894 11.98068237 21.31605148 C10.31574324 21.31272142 8.65077201 21.31679052 6.98587036 21.32844925 C4.65639142 21.34118275 2.32930142 21.32175081 0 21.29394531 C-0.68482452 21.30406647 -1.36964905 21.31418762 -2.07522583 21.32461548 C-5.8808614 21.24066278 -7.39907443 20.70058074 -10.38989258 18.26278687 C-12.64713464 15.41716527 -13.14570607 14.22216146 -13.08984375 10.64697266 C-13.10273438 9.82197266 -13.115625 8.99697266 -13.12890625 8.14697266 C-11.33775661 1.40382107 -6.30093879 -0.0931228 0 0 Z " fill="#000000" transform="translate(12.46484375,260.35302734375)"/>
<path d="M0 0 C4.62850943 1.94798845 8.85219219 4.50743531 13.125 7.125 C14.34784782 7.85332327 15.57190778 8.57961489 16.79711914 9.30395508 C19.30359644 10.78894505 21.80305359 12.28486345 24.29833984 13.78857422 C27.83369609 15.91150196 31.40420412 17.96424146 34.98828125 20.00390625 C36.0767334 20.62571777 37.16518555 21.2475293 38.28662109 21.88818359 C40.33840478 23.05985923 42.3920278 24.22832167 44.44775391 25.39306641 C56.17934793 32.17900851 56.17934793 32.17900851 58 38.4375 C58 42.53094236 57.22004022 44.59065251 55 48 C50.66775901 50.88816066 47.08332664 50.80202416 42 50 C38.06370155 48.39451933 34.58220475 46.21257022 31 43.9375 C28.8993451 42.65476249 26.79774679 41.37356896 24.6953125 40.09375 C23.06384277 39.08828125 23.06384277 39.08828125 21.39941406 38.0625 C17.919696 35.95127778 14.40669538 33.91474199 10.8671875 31.90625 C10.28052307 31.57266983 9.69385864 31.23908966 9.0894165 30.895401 C6.24699739 29.28056475 3.40189905 27.67058062 0.5546875 26.06420898 C-12.78036665 18.43926669 -12.78036665 18.43926669 -15 14 C-15.49170132 9.08298685 -15.48320696 6.90198633 -13.125 2.5 C-9.38898738 -1.30217117 -4.9774253 -0.89412839 0 0 Z " fill="#000000" transform="translate(53,141)"/>
<path d="M0 0 C8.02623877 2.50819962 11.21205421 10.54910181 14.875 17.4140625 C16.10794146 19.67135651 17.34232269 21.9278647 18.578125 24.18359375 C19.17947266 25.28783691 19.78082031 26.39208008 20.40039062 27.52978516 C22.73183475 31.76691421 25.15938229 35.94149245 27.625 40.1015625 C28.02477051 40.78387939 28.42454102 41.46619629 28.83642578 42.16918945 C30.51671121 45.02397097 32.22680515 47.81615695 34.0703125 50.5703125 C37.38180639 55.56065678 39.06166797 59.37495274 38.640625 65.4609375 C37.78124919 69.13281596 36.2244066 70.61977304 33.125 72.6640625 C29.36090068 73.75907321 27.06257274 73.9432566 23.3046875 72.82421875 C18.50749171 69.56519016 16.44112546 65.11750595 13.6875 60.1015625 C12.46360629 57.93746345 11.23964548 55.77340235 10.015625 53.609375 C9.38333984 52.47790039 8.75105469 51.34642578 8.09960938 50.18066406 C5.42541067 45.40254436 2.67836045 40.66677116 -0.06469727 35.92797852 C-2.5106989 31.70225138 -4.94522525 27.46995955 -7.37963867 23.23754883 C-8.40559676 21.4718959 -9.45942457 19.7222319 -10.53613281 17.98706055 C-12.82138136 14.02204597 -12.75261018 10.08837826 -11.875 5.6640625 C-9.15143819 1.1746749 -4.95335213 0.10319484 0 0 Z " fill="#000000" transform="translate(137.875,52.3359375)"/>
<path d="M0 0 C2.83028908 1.71704204 3.34664783 2.91374262 5 6 C5.68210403 8.86483691 5.88181362 11.1781964 5 14 C0.94802589 20.28963145 -4.83055584 23.04784296 -11.3125 26.5 C-13.55187421 27.72195748 -15.79012513 28.94597542 -18.02734375 30.171875 C-19.17444824 30.79771484 -20.32155273 31.42355469 -21.50341797 32.06835938 C-27.18042776 35.20454856 -32.77911445 38.47185326 -38.375 41.75 C-39.9070105 42.64428711 -39.9070105 42.64428711 -41.4699707 43.55664062 C-46.79851145 46.67592963 -46.79851145 46.67592963 -52 50 C-56.99620813 50.80447419 -60.81632667 50.79716775 -65.0625 47.9375 C-67.39595144 44.39968652 -68 42.2362654 -68 38 C-65.9330668 31.05894992 -60.39316897 28.83201088 -54.4375 25.5625 C-52.27340095 24.33860629 -50.10933985 23.11464548 -47.9453125 21.890625 C-46.24810059 20.94219727 -46.24810059 20.94219727 -44.51660156 19.97460938 C-39.73848186 17.30041067 -35.00270866 14.55336045 -30.26391602 11.81030273 C-26.03818888 9.3643011 -21.80589705 6.92977475 -17.57348633 4.49536133 C-15.8078334 3.46940324 -14.0581694 2.41557543 -12.32299805 1.33886719 C-8.35798347 -0.94638136 -4.42431576 -0.87761018 0 0 Z " fill="#000000" transform="translate(469,141)"/>
<path d="M0 0 C4.33693108 2.32335593 4.33693108 2.32335593 6 5 C7.96023104 13.14843051 4.21357359 19.40613231 0.07565308 26.18167114 C-0.27931244 26.76109467 -0.63427795 27.34051819 -1 27.9375 C-1.72434197 29.15120951 -2.44688724 30.3659929 -3.16772461 31.58178711 C-4.66962428 34.10966768 -6.18312734 36.63013377 -7.70263672 39.14746094 C-9.99739038 42.96893519 -12.19236391 46.84250021 -14.37890625 50.7265625 C-15.43225284 52.5772258 -16.48818295 54.42637952 -17.5456543 56.27468872 C-18.54345285 58.02901143 -19.52483118 59.79264089 -20.50585938 61.55639648 C-25.61280009 70.35974515 -25.61280009 70.35974515 -29.76953125 72.24609375 C-33.4312917 73.10065211 -35.44211721 73.23752445 -39 72 C-41.9775716 69.99337566 -43.69691575 68.51295857 -44.4206543 64.90014648 C-44.71276894 57.1884765 -41.99771074 52.39299223 -37.9375 46 C-36.65476249 43.8993451 -35.37356896 41.79774679 -34.09375 39.6953125 C-33.4234375 38.60766602 -32.753125 37.52001953 -32.0625 36.39941406 C-29.95127778 32.919696 -27.91474199 29.40669538 -25.90625 25.8671875 C-25.57266983 25.28052307 -25.23908966 24.69385864 -24.895401 24.0894165 C-23.28056475 21.24699739 -21.67058062 18.40189905 -20.06420898 15.5546875 C-10.25770371 -1.5956428 -10.25770371 -1.5956428 0 0 Z " fill="#000000" transform="translate(380,53)"/>
<path d="M0 0 C0.825 -0.01289063 1.65 -0.02578125 2.5 -0.0390625 C6.14904237 0.93021438 7.61702585 2.73584401 10 5.625 C10.63491821 8.85009766 10.63491821 8.85009766 10.64697266 12.5390625 C10.66011505 13.55223541 10.66011505 13.55223541 10.67352295 14.58587646 C10.69544369 16.80791382 10.68099347 19.02794416 10.6640625 21.25 C10.66743282 22.80029684 10.67228724 24.35059109 10.67855835 25.90087891 C10.68591963 29.1457644 10.67524926 32.38996045 10.65185547 35.63476562 C10.62336682 39.7880033 10.63977498 43.93962551 10.66971779 48.09280396 C10.68781168 51.29284777 10.68202345 54.49251043 10.66907883 57.69256592 C10.66575053 59.22353305 10.66981169 60.75453512 10.68147659 62.28546143 C10.69422147 64.4282149 10.67476493 66.56837649 10.64697266 68.7109375 C10.64299469 69.9282959 10.63901672 71.1456543 10.63491821 72.39990234 C9.82245793 76.52683352 8.23078004 78.01972069 5 80.625 C2.5 81.2890625 2.5 81.2890625 0 81.25 C-1.2375 81.26933594 -1.2375 81.26933594 -2.5 81.2890625 C-6.14904237 80.31978562 -7.61702585 78.51415599 -10 75.625 C-10.63491821 72.39990234 -10.63491821 72.39990234 -10.64697266 68.7109375 C-10.66011505 67.69776459 -10.66011505 67.69776459 -10.67352295 66.66412354 C-10.69544369 64.44208618 -10.68099347 62.22205584 -10.6640625 60 C-10.66743282 58.44970316 -10.67228724 56.89940891 -10.67855835 55.34912109 C-10.68591963 52.1042356 -10.67524926 48.86003955 -10.65185547 45.61523438 C-10.62336682 41.4619967 -10.63977498 37.31037449 -10.66971779 33.15719604 C-10.68781168 29.95715223 -10.68202345 26.75748957 -10.66907883 23.55743408 C-10.66575053 22.02646695 -10.66981169 20.49546488 -10.68147659 18.96453857 C-10.69422147 16.8217851 -10.67476493 14.68162351 -10.64697266 12.5390625 C-10.64299469 11.3217041 -10.63901672 10.1043457 -10.63491821 8.85009766 C-9.50781136 3.12490409 -5.82978271 -0.09109035 0 0 Z " fill="#000000" transform="translate(256,20.375)"/>
<path d="M0 0 C3.125 1.875 3.125 1.875 5 5 C5.98876625 10.02622846 5.7769173 13.70513784 3.125 18.125 C-1.29486216 20.7769173 -4.97377154 20.98876625 -10 20 C-13.125 18.125 -13.125 18.125 -15 15 C-15.98876625 9.97377154 -15.7769173 6.29486216 -13.125 1.875 C-8.70513784 -0.7769173 -5.02622846 -0.98876625 0 0 Z " fill="#000000" transform="translate(261,471)"/>
</svg>
