<?xml version="1.0" encoding="UTF-8"?>
<svg version="1.1" xmlns="http://www.w3.org/2000/svg" width="512" height="512">
<path d="M0 0 C1.45108658 0.00273422 1.45108658 0.00273422 2.93148804 0.00552368 C17.26440977 0.05095174 31.21023917 0.55983928 45.3125 3.3125 C46.65803955 3.55395752 46.65803955 3.55395752 48.03076172 3.80029297 C96.71843124 12.61028149 141.74255908 36.05356547 177.3125 70.3125 C178.3015332 71.26068604 178.3015332 71.26068604 179.31054688 72.22802734 C188.79880305 81.37247479 197.5387044 90.66984009 205.3125 101.3125 C206.17056152 102.46355017 207.02863451 103.61459177 207.88671875 104.765625 C213.92427396 112.95525981 219.30707302 121.45788276 224.3125 130.3125 C224.7146875 131.01971191 225.116875 131.72692383 225.53125 132.45556641 C238.54775099 155.57510937 247.281052 180.72419753 252.625 206.6875 C252.77235596 207.39801514 252.91971191 208.10853027 253.0715332 208.84057617 C256.05794017 224.48291051 256.68730954 240.11926093 256.625 256 C256.62226578 257.45108658 256.62226578 257.45108658 256.61947632 258.93148804 C256.57404826 273.26440977 256.06516072 287.21023917 253.3125 301.3125 C253.15152832 302.20952637 252.99055664 303.10655273 252.82470703 304.03076172 C244.01471851 352.71843124 220.57143453 397.74255908 186.3125 433.3125 C185.68037598 433.97185547 185.04825195 434.63121094 184.39697266 435.31054688 C175.25252521 444.79880305 165.95515991 453.5387044 155.3125 461.3125 C154.16144983 462.17056152 153.01040823 463.02863451 151.859375 463.88671875 C143.66974019 469.92427396 135.16711724 475.30707302 126.3125 480.3125 C125.60528809 480.7146875 124.89807617 481.116875 124.16943359 481.53125 C101.04989063 494.54775099 75.90080247 503.281052 49.9375 508.625 C49.22698486 508.77235596 48.51646973 508.91971191 47.78442383 509.0715332 C32.14208949 512.05794017 16.50573907 512.68730954 0.625 512.625 C-0.34239105 512.62317719 -1.3097821 512.62135437 -2.30648804 512.61947632 C-16.63940977 512.57404826 -30.58523917 512.06516072 -44.6875 509.3125 C-45.58452637 509.15152832 -46.48155273 508.99055664 -47.40576172 508.82470703 C-96.09343124 500.01471851 -141.11755908 476.57143453 -176.6875 442.3125 C-177.34685547 441.68037598 -178.00621094 441.04825195 -178.68554688 440.39697266 C-188.17380305 431.25252521 -196.9137044 421.95515991 -204.6875 411.3125 C-205.54556152 410.16144983 -206.40363451 409.01040823 -207.26171875 407.859375 C-213.29927396 399.66974019 -218.68207302 391.16711724 -223.6875 382.3125 C-224.0896875 381.60528809 -224.491875 380.89807617 -224.90625 380.16943359 C-237.92275099 357.04989063 -246.656052 331.90080247 -252 305.9375 C-252.22103394 304.87172729 -252.22103394 304.87172729 -252.4465332 303.78442383 C-255.43294017 288.14208949 -256.06230954 272.50573907 -256 256.625 C-255.99817719 255.65760895 -255.99635437 254.6902179 -255.99447632 253.69351196 C-255.94904826 239.36059023 -255.44016072 225.41476083 -252.6875 211.3125 C-252.44604248 209.96696045 -252.44604248 209.96696045 -252.19970703 208.59423828 C-243.38971851 159.90656876 -219.94643453 114.88244092 -185.6875 79.3125 C-185.05537598 78.65314453 -184.42325195 77.99378906 -183.77197266 77.31445312 C-174.62752521 67.82619695 -165.33015991 59.0862956 -154.6875 51.3125 C-153.53644983 50.45443848 -152.38540823 49.59636549 -151.234375 48.73828125 C-143.04474019 42.70072604 -134.54211724 37.31792698 -125.6875 32.3125 C-124.98028809 31.9103125 -124.27307617 31.508125 -123.54443359 31.09375 C-100.42489063 18.07724901 -75.27580247 9.343948 -49.3125 4 C-48.24672729 3.77896606 -48.24672729 3.77896606 -47.15942383 3.5534668 C-31.51708949 0.56705983 -15.88073907 -0.06230954 0 0 Z M-136.6875 60.3125 C-137.71101563 61.04082031 -138.73453125 61.76914062 -139.7890625 62.51953125 C-157.53203326 75.51075654 -174.43596048 90.70491808 -187.6875 108.3125 C-188.16219727 108.93253906 -188.63689453 109.55257812 -189.12597656 110.19140625 C-198.09743257 121.95981276 -205.7506823 134.24628518 -212.6875 147.3125 C-213.3060083 148.47338135 -213.3060083 148.47338135 -213.93701172 149.65771484 C-226.94470257 174.48765337 -234.64365143 202.49313982 -237.6875 230.3125 C-237.79835937 231.24320313 -237.90921875 232.17390625 -238.0234375 233.1328125 C-243.56840915 289.33184948 -228.4956753 347.34079915 -195.6875 393.3125 C-194.95917969 394.33601563 -194.23085937 395.35953125 -193.48046875 396.4140625 C-180.48924346 414.15703326 -165.29508192 431.06096048 -147.6875 444.3125 C-147.06746094 444.78719727 -146.44742188 445.26189453 -145.80859375 445.75097656 C-134.04018724 454.72243257 -121.75371482 462.3756823 -108.6875 469.3125 C-107.9135791 469.72483887 -107.1396582 470.13717773 -106.34228516 470.56201172 C-81.51234663 483.56970257 -53.50686018 491.26865143 -25.6875 494.3125 C-24.75679687 494.42335938 -23.82609375 494.53421875 -22.8671875 494.6484375 C33.33184948 500.19340915 91.34079915 485.1206753 137.3125 452.3125 C138.33601563 451.58417969 139.35953125 450.85585938 140.4140625 450.10546875 C158.15703326 437.11424346 175.06096048 421.92008192 188.3125 404.3125 C188.78719727 403.69246094 189.26189453 403.07242187 189.75097656 402.43359375 C198.72243257 390.66518724 206.3756823 378.37871482 213.3125 365.3125 C213.72483887 364.5385791 214.13717773 363.7646582 214.56201172 362.96728516 C227.56970257 338.13734663 235.26865143 310.13186018 238.3125 282.3125 C238.42335938 281.38179688 238.53421875 280.45109375 238.6484375 279.4921875 C244.19340915 223.29315052 229.1206753 165.28420085 196.3125 119.3125 C195.22001953 117.77722656 195.22001953 117.77722656 194.10546875 116.2109375 C181.11424346 98.46796674 165.92008192 81.56403952 148.3125 68.3125 C147.69246094 67.83780273 147.07242187 67.36310547 146.43359375 66.87402344 C134.66518724 57.90256743 122.37871482 50.2493177 109.3125 43.3125 C108.15161865 42.6939917 108.15161865 42.6939917 106.96728516 42.06298828 C82.13734663 29.05529743 54.13186018 21.35634857 26.3125 18.3125 C25.38179688 18.20164062 24.45109375 18.09078125 23.4921875 17.9765625 C-32.70684948 12.43159085 -90.71579915 27.5043247 -136.6875 60.3125 Z " fill="#000000" transform="translate(255.6875,-0.3125)"/>
<path d="M0 0 C0.96897217 0.51167725 0.96897217 0.51167725 1.95751953 1.03369141 C40.95823584 21.64273347 72.45442895 54.09249204 93 93 C93.50974365 93.93996826 93.50974365 93.93996826 94.02978516 94.89892578 C121.31773314 145.31181102 124.86636794 206.47962027 109 261 C104.87351412 274.26168684 99.61499519 286.80193633 93 299 C92.48832275 299.96897217 92.48832275 299.96897217 91.96630859 300.95751953 C71.35726653 339.95823584 38.90750796 371.45442895 0 392 C-0.93996826 392.50974365 -0.93996826 392.50974365 -1.89892578 393.02978516 C-52.31181102 420.31773314 -113.47962027 423.86636794 -168 408 C-181.26168684 403.87351412 -193.80193633 398.61499519 -206 392 C-206.64598145 391.65888184 -207.29196289 391.31776367 -207.95751953 390.96630859 C-246.95823584 370.35726653 -278.45442895 337.90750796 -299 299 C-299.3398291 298.37335449 -299.6796582 297.74670898 -300.02978516 297.10107422 C-327.31773314 246.68818898 -330.86636794 185.52037973 -315 131 C-310.87351412 117.73831316 -305.61499519 105.19806367 -299 93 C-298.65888184 92.35401855 -298.31776367 91.70803711 -297.96630859 91.04248047 C-277.35726653 52.04176416 -244.90750796 20.54557105 -206 0 C-205.37335449 -0.3398291 -204.74670898 -0.6796582 -204.10107422 -1.02978516 C-142.03452381 -34.62573569 -61.77442954 -33.50019848 0 0 Z M-125.875 -6.484375 C-126.70628418 -6.36980957 -127.53756836 -6.25524414 -128.39404297 -6.13720703 C-129.25400879 -6.00942871 -130.11397461 -5.88165039 -131 -5.75 C-132.36922607 -5.54866455 -132.36922607 -5.54866455 -133.76611328 -5.34326172 C-185.03319306 2.50346702 -232.48344927 30.43352717 -264.3125 71.4375 C-287.36879689 102.9544554 -306.07203852 142.80561237 -306.00708008 182.65649414 C-306.00605789 183.4692128 -306.00503571 184.28193146 -306.00398254 185.11927795 C-306.0026683 185.73991623 -306.00135406 186.3605545 -306 187 C-304.90010742 187.01981934 -303.80021484 187.03963867 -302.66699219 187.06005859 C-298.58163778 187.13619901 -294.49663562 187.22490336 -290.41162109 187.31738281 C-288.6444393 187.35563771 -286.87718056 187.3904967 -285.10986328 187.421875 C-282.56775437 187.46760152 -280.02617352 187.52558289 -277.484375 187.5859375 C-276.69569031 187.59748871 -275.90700562 187.60903992 -275.09442139 187.62094116 C-267.89578328 187.81410974 -267.89578328 187.81410974 -265 190 C-263.18196577 194.11033826 -262.68058795 196.09219733 -264.1875 200.375 C-266 203 -266 203 -269 204 C-271.80160502 204.1539263 -274.58298425 204.25738045 -277.38671875 204.31640625 C-278.61223198 204.3475779 -278.61223198 204.3475779 -279.86250305 204.37937927 C-282.47075034 204.44473079 -285.07909775 204.50369273 -287.6875 204.5625 C-289.45639054 204.60569892 -291.22527097 204.64931365 -292.99414062 204.69335938 C-297.32932463 204.80039743 -301.66460929 204.90170544 -306 205 C-306.08543834 211.95434737 -306.08543834 211.95434737 -305.484375 218.875 C-305.36980957 219.70628418 -305.25524414 220.53756836 -305.13720703 221.39404297 C-305.00942871 222.25400879 -304.88165039 223.11397461 -304.75 224 C-304.54866455 225.36922607 -304.54866455 225.36922607 -304.34326172 226.76611328 C-296.49653298 278.03319306 -268.56647283 325.48344927 -227.5625 357.3125 C-196.0455446 380.36879689 -156.19438763 399.07203852 -116.34350586 399.00708008 C-115.12442787 399.0055468 -115.12442787 399.0055468 -113.88072205 399.00398254 C-112.94976463 399.00201118 -112.94976463 399.00201118 -112 399 C-111.98018066 397.90010742 -111.96036133 396.80021484 -111.93994141 395.66699219 C-111.86380099 391.58163778 -111.77509664 387.49663562 -111.68261719 383.41162109 C-111.64436229 381.6444393 -111.6095033 379.87718056 -111.578125 378.10986328 C-111.53239848 375.56775437 -111.47441711 373.02617352 -111.4140625 370.484375 C-111.39673569 369.30134796 -111.39673569 369.30134796 -111.37905884 368.09442139 C-111.18589026 360.89578328 -111.18589026 360.89578328 -109 358 C-104.88966174 356.18196577 -102.90780267 355.68058795 -98.625 357.1875 C-96 359 -96 359 -95 362 C-94.8460737 364.80160502 -94.74261955 367.58298425 -94.68359375 370.38671875 C-94.66281265 371.20372757 -94.64203156 372.02073639 -94.62062073 372.86250305 C-94.55526921 375.47075034 -94.49630727 378.07909775 -94.4375 380.6875 C-94.39430108 382.45639054 -94.35068635 384.22527097 -94.30664062 385.99414062 C-94.19960257 390.32932463 -94.09829456 394.66460929 -94 399 C-87.04565263 399.08543834 -87.04565263 399.08543834 -80.125 398.484375 C-79.29371582 398.36980957 -78.46243164 398.25524414 -77.60595703 398.13720703 C-76.74599121 398.00942871 -75.88602539 397.88165039 -75 397.75 C-74.08718262 397.61577637 -73.17436523 397.48155273 -72.23388672 397.34326172 C-20.96680694 389.49653298 26.48344927 361.56647283 58.3125 320.5625 C81.36879689 289.0455446 100.07203852 249.19438763 100.00708008 209.34350586 C100.00605789 208.5307872 100.00503571 207.71806854 100.00398254 206.88072205 C100.0026683 206.26008377 100.00135406 205.6394455 100 205 C98.90010742 204.98018066 97.80021484 204.96036133 96.66699219 204.93994141 C92.58163778 204.86380099 88.49663562 204.77509664 84.41162109 204.68261719 C82.6444393 204.64436229 80.87718056 204.6095033 79.10986328 204.578125 C76.56775437 204.53239848 74.02617352 204.47441711 71.484375 204.4140625 C70.69569031 204.40251129 69.90700562 204.39096008 69.09442139 204.37905884 C61.89578328 204.18589026 61.89578328 204.18589026 59 202 C57.18196577 197.88966174 56.68058795 195.90780267 58.1875 191.625 C60 189 60 189 63 188 C65.80160502 187.8460737 68.58298425 187.74261955 71.38671875 187.68359375 C72.20372757 187.66281265 73.02073639 187.64203156 73.86250305 187.62062073 C76.47075034 187.55526921 79.07909775 187.49630727 81.6875 187.4375 C83.45639054 187.39430108 85.22527097 187.35068635 86.99414062 187.30664062 C91.32932463 187.19960257 95.66460929 187.09829456 100 187 C100.08543834 180.04565263 100.08543834 180.04565263 99.484375 173.125 C99.36980957 172.29371582 99.25524414 171.46243164 99.13720703 170.60595703 C99.00942871 169.74599121 98.88165039 168.88602539 98.75 168 C98.61577637 167.08718262 98.48155273 166.17436523 98.34326172 165.23388672 C90.49653298 113.96680694 62.56647283 66.51655073 21.5625 34.6875 C-9.9544554 11.63120311 -49.80561237 -7.07203852 -89.65649414 -7.00708008 C-90.87557213 -7.0055468 -90.87557213 -7.0055468 -92.11927795 -7.00398254 C-92.73991623 -7.0026683 -93.3605545 -7.00135406 -94 -7 C-94.01981934 -5.90010742 -94.03963867 -4.80021484 -94.06005859 -3.66699219 C-94.13619901 0.41836222 -94.22490336 4.50336438 -94.31738281 8.58837891 C-94.35563771 10.3555607 -94.3904967 12.12281944 -94.421875 13.89013672 C-94.46760152 16.43224563 -94.52558289 18.97382648 -94.5859375 21.515625 C-94.59748871 22.30430969 -94.60903992 23.09299438 -94.62094116 23.90557861 C-94.81410974 31.10421672 -94.81410974 31.10421672 -97 34 C-101.11033826 35.81803423 -103.09219733 36.31941205 -107.375 34.8125 C-110 33 -110 33 -111 30 C-111.1539263 27.19839498 -111.25738045 24.41701575 -111.31640625 21.61328125 C-111.33718735 20.79627243 -111.35796844 19.97926361 -111.37937927 19.13749695 C-111.44473079 16.52924966 -111.50369273 13.92090225 -111.5625 11.3125 C-111.60569892 9.54360946 -111.64931365 7.77472903 -111.69335938 6.00585938 C-111.80039743 1.67067537 -111.90170544 -2.66460929 -112 -7 C-118.95434737 -7.08543834 -118.95434737 -7.08543834 -125.875 -6.484375 Z " fill="#000000" transform="translate(359,60)"/>
<path d="M0 0 C2.75402229 1.65241337 2.97086469 2.89170045 3.8112793 6.015625 C4.06435629 11.35872527 2.37134185 14.84735019 0.14453125 19.625 C-0.26645309 20.5430542 -0.67743744 21.4611084 -1.10087585 22.40698242 C-1.96244476 24.32865938 -2.83108726 26.2471793 -3.70648193 28.16259766 C-5.30968928 31.6793203 -6.86649509 35.21542814 -8.42288208 38.75305176 C-10.3716114 43.17514192 -12.34410937 47.58663635 -14.3125 52 C-15.18309664 53.95500958 -16.0535355 55.91008944 -16.92382812 57.86523438 C-18.7228667 61.90651904 -20.52256722 65.94750789 -22.32275391 69.98828125 C-26.14251203 78.56367886 -29.95384187 87.1428199 -33.76547241 95.72183228 C-34.99733337 98.49399904 -36.22966861 101.26595447 -37.4621582 104.0378418 C-41.36615521 112.81854514 -45.26734895 121.60046794 -49.16015625 130.38613892 C-50.99677265 134.53079605 -52.8347591 138.67484496 -54.67285156 142.81884766 C-55.54788592 144.79266504 -56.4222504 146.76677955 -57.29589844 148.74121094 C-58.50806476 151.48057518 -59.72254581 154.21890257 -60.9375 156.95703125 C-61.29078369 157.75708084 -61.64406738 158.55713043 -62.00805664 159.38142395 C-62.9914213 161.59421526 -63.99506761 163.79694178 -65 166 C-65.3176532 166.73699127 -65.6353064 167.47398254 -65.96258545 168.23330688 C-67.97626634 172.66897002 -69.44165732 174.97307632 -74.078125 176.984375 C-75.14482422 177.46326172 -76.21152344 177.94214844 -77.31054688 178.43554688 C-77.89989014 178.68522217 -78.4892334 178.93489746 -79.09643555 179.19213867 C-81.13402184 180.05687807 -83.15393986 180.95605156 -85.17382812 181.86132812 C-89.15135919 183.63642643 -93.14213932 185.37953018 -97.13720703 187.11474609 C-101.69389251 189.09461785 -106.24557646 191.08590693 -110.796875 193.078125 C-111.73156616 193.48720093 -112.66625732 193.89627686 -113.62927246 194.31774902 C-123.11690702 198.47732409 -132.56059455 202.73238506 -142 207 C-157.44993221 213.98142988 -172.94736852 220.84797458 -188.48388672 227.63452148 C-196.11835879 230.97062539 -203.74485751 234.31916975 -211.33203125 237.76171875 C-212.59137257 238.33093043 -213.8507307 238.90010494 -215.11010742 239.46923828 C-217.36764122 240.49255325 -219.62201248 241.52289025 -221.87231445 242.56201172 C-226.95182583 244.86054993 -231.39047489 246.77827964 -237 247 C-239.88017082 245.78392788 -241.45238499 244.69696456 -243.375 242.25 C-245.14059982 235.89384065 -241.82644841 229.72305793 -239.23046875 224.0546875 C-238.84264725 223.18881012 -238.45482574 222.32293274 -238.05525208 221.43081665 C-236.77409367 218.57516149 -235.48072642 215.72520764 -234.1875 212.875 C-233.27966149 210.85654117 -232.3727765 208.83765324 -231.46679688 206.81835938 C-229.58360916 202.62300049 -227.69632835 198.42951945 -225.80615234 194.23730469 C-221.91353916 185.59571344 -218.07087355 176.93203414 -214.2281189 168.26818848 C-212.16731437 163.62312083 -210.10310334 158.97956777 -208.0390625 154.3359375 C-207.62853134 153.41216309 -207.21800018 152.48838867 -206.79502869 151.53662109 C-204.19641737 145.6897377 -201.59568679 139.84380092 -198.99357605 133.99847412 C-197.22002771 130.01412148 -195.44735784 126.02937817 -193.67459106 122.04467773 C-192.39412142 119.16795841 -191.11205199 116.29195601 -189.82983398 113.41601562 C-186.39922612 105.71348465 -182.97997435 98.00993532 -179.69921875 90.2421875 C-179.00916748 88.61385986 -179.00916748 88.61385986 -178.30517578 86.95263672 C-177.51760222 85.08133718 -176.7399761 83.20579395 -175.97607422 81.32470703 C-175.64494629 80.53692871 -175.31381836 79.74915039 -174.97265625 78.9375 C-174.70718994 78.28652344 -174.44172363 77.63554687 -174.16821289 76.96484375 C-170.70991105 71.14824747 -165.93385336 68.70674911 -159.94921875 66.20703125 C-159.15562454 65.86379318 -158.36203033 65.52055511 -157.54438782 65.16691589 C-155.82877084 64.42633818 -154.11083742 63.69110837 -152.39086914 62.96069336 C-148.69036574 61.38899034 -145.00122855 59.79139751 -141.31130981 58.19503784 C-139.3918369 57.36476373 -137.47180596 56.5357786 -135.55123901 55.70803833 C-126.80925555 51.93584227 -118.1258138 48.04033884 -109.45339966 44.11135864 C-93.40461992 36.84146684 -77.29869447 29.70925613 -61.15771484 22.64672852 C-47.73921275 16.7741223 -34.35032857 10.83678954 -20.97753906 4.86083984 C-19.56054852 4.22883746 -18.14355642 3.59683855 -16.7265625 2.96484375 C-16.08488129 2.67722672 -15.44320007 2.38960968 -14.78207397 2.09327698 C-9.25035599 -0.37215356 -6.04288344 -1.29490359 0 0 Z M-32.94140625 29.5234375 C-33.75879776 29.89599167 -34.57618927 30.26854584 -35.41835022 30.65238953 C-37.19739777 31.46333199 -38.9757442 32.2758139 -40.753479 33.08963013 C-45.54885943 35.28393111 -50.35025572 37.464956 -55.15234375 39.64453125 C-56.14129639 40.09346237 -57.13024902 40.54239349 -58.14916992 41.00492859 C-67.93845577 45.44016257 -77.77596076 49.76197937 -87.625 54.0625 C-107.82069308 62.88547009 -127.92026828 71.91665954 -148 81 C-145.81611494 85.54075696 -143.04045164 88.9433105 -139 92 C-136.38608611 92.24401278 -136.38608611 92.24401278 -134 91 C-124.82393422 87.43673942 -114.41375796 87.58468546 -105.3125 91.25 C-96.43449699 95.31856149 -91.21968004 101.85164765 -87.125 110.5625 C-84.04990476 119.65965674 -85.20271015 130.41482296 -89 139 C-88.67718577 142.81228237 -86.72821137 144.64695454 -84.0625 147.25 C-83.35222656 147.95640625 -82.64195312 148.6628125 -81.91015625 149.390625 C-80.16137634 151.21477612 -80.16137634 151.21477612 -78 151 C-68.14556791 129.34631235 -58.36064096 107.66674018 -48.84094238 85.86352539 C-44.57135878 76.08616471 -40.2645894 66.32788447 -35.87109375 56.60546875 C-35.45047165 55.67434265 -35.02984955 54.74321655 -34.59648132 53.78387451 C-32.56505823 49.2904899 -30.52801005 44.79974356 -28.48413086 40.31201172 C-27.75758506 38.70933921 -27.03110051 37.10663895 -26.3046875 35.50390625 C-25.96815659 34.76955856 -25.63162567 34.03521088 -25.28489685 33.27861023 C-23.58438154 29.78024055 -23.58438154 29.78024055 -23 26 C-26.56286711 26 -29.74569567 28.05143236 -32.94140625 29.5234375 Z M-162 95 C-171.85443209 116.65368765 -181.63935904 138.33325982 -191.15905762 160.13647461 C-195.42864122 169.91383529 -199.7354106 179.67211553 -204.12890625 189.39453125 C-204.54952835 190.32565735 -204.97015045 191.25678345 -205.40351868 192.21612549 C-207.43494177 196.7095101 -209.47198995 201.20025644 -211.51586914 205.68798828 C-212.24241494 207.29066079 -212.96889949 208.89336105 -213.6953125 210.49609375 C-214.20010887 211.59761528 -214.20010887 211.59761528 -214.71510315 212.72138977 C-216.41561846 216.21975945 -216.41561846 216.21975945 -217 220 C-211.86603432 218.40904944 -207.0467757 216.328892 -202.15234375 214.1328125 C-201.28432632 213.74608871 -200.4163089 213.35936493 -199.52198792 212.96092224 C-196.65933321 211.68486151 -193.79843109 210.40491982 -190.9375 209.125 C-188.92591048 208.22749351 -186.91418959 207.3302814 -184.90234375 206.43334961 C-180.70897886 204.56360425 -176.51618767 202.69258045 -172.32373047 200.82080078 C-166.23058548 198.1015257 -160.13360004 195.39096129 -154.03515625 192.68359375 C-153.07094757 192.25552429 -152.10673889 191.82745483 -151.11331177 191.38641357 C-149.19114857 190.53308608 -147.26897863 189.67977375 -145.34680176 188.82647705 C-127.54696337 180.92336713 -109.76221413 172.98731975 -92 165 C-94.18388506 160.45924304 -96.95954836 157.0566895 -101 154 C-103.61391389 153.75598722 -103.61391389 153.75598722 -106 155 C-115.17606578 158.56326058 -125.58624204 158.41531454 -134.6875 154.75 C-143.56550301 150.68143851 -148.78031996 144.14835235 -152.875 135.4375 C-155.95009524 126.34034326 -154.79728985 115.58517704 -151 107 C-151.32281423 103.18771763 -153.27178863 101.35304546 -155.9375 98.75 C-156.64777344 98.04359375 -157.35804688 97.3371875 -158.08984375 96.609375 C-159.83862366 94.78522388 -159.83862366 94.78522388 -162 95 Z M-131.78125 109.546875 C-135.38429244 113.53848084 -137.94907089 117.38403346 -138.02734375 122.94140625 C-137.57240932 129.08885351 -135.10477407 133.00600351 -130.625 137.25 C-125.74792751 140.50138166 -121.67882178 141.47877609 -115.953125 140.5390625 C-110.61518852 139.06579203 -106.99672936 135.49509403 -104 131 C-101.73863963 126.15422779 -101.59641061 122.08546879 -103 117 C-105.92461801 111.56856655 -109.32980645 108.08987492 -115.0625 105.75 C-121.22117691 104.17757185 -126.96512267 105.36444863 -131.78125 109.546875 Z " fill="#000000" transform="translate(376,133)"/>
</svg>
