<?xml version="1.0" encoding="UTF-8"?>
<svg version="1.1" xmlns="http://www.w3.org/2000/svg" width="512" height="512">
<path d="M0 0 C2.67230823 2.15060761 5.23500437 4.37804919 7.78125 6.67578125 C9.03615234 7.73539063 9.03615234 7.73539063 10.31640625 8.81640625 C33.57482255 28.80354607 48.13760816 58.36392592 51.78125 88.67578125 C53.97073951 122.84633357 47.19432477 157.70741044 24.04296875 184.171875 C22.92341797 185.41130859 22.92341797 185.41130859 21.78125 186.67578125 C21.02457031 187.57425781 20.26789063 188.47273437 19.48828125 189.3984375 C3.90954592 207.46773737 -17.11084827 219.54542934 -39.78125 226.42578125 C-40.42884277 226.62461914 -41.07643555 226.82345703 -41.74365234 227.02832031 C-72.11276159 235.76515263 -107.27664016 231.59679858 -135.15625 216.86328125 C-167.1242313 199.12295037 -188.56851842 171.31199158 -198.89892578 136.37548828 C-207.85981186 104.12867721 -202.2188763 69.21973471 -186.34375 40.17578125 C-182.31021834 33.05580735 -177.70841335 26.75918478 -172.21875 20.67578125 C-171.51234375 19.83917969 -170.8059375 19.00257813 -170.078125 18.140625 C-128.25645998 -30.52595282 -51.39824296 -37.11402252 0 0 Z M-103.21875 -3.32421875 C-104.41886719 -2.99550781 -105.61898437 -2.66679687 -106.85546875 -2.328125 C-133.73548929 5.78924797 -157.6666007 24.26122892 -171.44238281 48.86083984 C-184.8302007 74.01516914 -190.21936124 103.85179318 -182.21875 131.67578125 C-181.89003906 132.87589844 -181.56132812 134.07601562 -181.22265625 135.3125 C-173.10528328 162.19252054 -154.63330233 186.12363195 -130.03369141 199.89941406 C-103.95249225 213.78053729 -72.92732138 218.82920252 -44.24658203 210.07373047 C-16.18182473 201.03477969 8.2621319 182.43303762 22.2265625 156.1953125 C34.71323556 131.58570528 39.51940752 102.58702542 31.78125 75.67578125 C31.45253906 74.47566406 31.12382812 73.27554688 30.78515625 72.0390625 C22.694771 45.24840963 4.18941336 21.02532038 -20.46826172 7.43603516 C-30.34007837 2.27147141 -40.30076184 -1.95127763 -51.21875 -4.32421875 C-52.0118457 -4.49864502 -52.80494141 -4.67307129 -53.62207031 -4.8527832 C-60.77178086 -6.30478595 -67.68389593 -6.67390562 -74.96875 -6.63671875 C-76.6844519 -6.62934692 -76.6844519 -6.62934692 -78.43481445 -6.62182617 C-87.06183323 -6.50257554 -94.89338028 -5.71812599 -103.21875 -3.32421875 Z " fill="#000000" transform="translate(331.21875,152.32421875)"/>
<path d="M0 0 C4.31520719 1.66604492 7.23043297 4.92761834 10.43676758 8.13037109 C11.07294006 8.75822006 11.70911255 9.38606903 12.36456299 10.03294373 C14.46336013 12.1076653 16.55443713 14.18995086 18.64453125 16.2734375 C20.09844862 17.71839045 21.55244444 19.16326446 23.0065155 20.60806274 C26.05063882 23.6357028 29.0903461 26.66770375 32.12768555 29.70214844 C36.0279884 33.59705203 39.94420827 37.4755242 43.86453724 41.35025597 C46.87114008 44.32718774 49.86649756 47.31523914 52.85880089 50.30653763 C54.29848742 51.74200617 55.74231328 53.17333524 57.19025612 54.60047531 C59.20886484 56.59236301 61.2112167 58.59928961 63.21020508 60.61083984 C63.81531418 61.20111465 64.42042328 61.79138947 65.04386902 62.39955139 C66.67951965 64.06478882 66.67951965 64.06478882 69 67 C68.53672514 71.01607071 66.47922165 72.98422553 63.6875 75.8125 C62.90761719 76.62332031 62.12773437 77.43414062 61.32421875 78.26953125 C59 80 59 80 57.04140091 79.77227116 C53.48776787 78.42791578 51.10436274 75.49176813 48.48730469 72.82788086 C47.84298492 72.18399918 47.19866516 71.54011749 46.53482056 70.87672424 C44.40665093 68.74646442 42.2893045 66.60577495 40.171875 64.46484375 C38.69851042 62.98588406 37.22448214 61.50758529 35.74981689 60.02992249 C31.86996421 56.13861441 27.99920469 52.23838132 24.13024902 48.33624268 C20.18081054 44.35611852 16.22286791 40.38447135 12.265625 36.41210938 C4.50205388 28.61636182 -3.25194052 20.81116235 -11 13 C-9.30413874 9.36696916 -7.26199512 7.05450954 -4.375 4.25 C-3.55773437 3.45078125 -2.74046875 2.6515625 -1.8984375 1.828125 C-0.95871094 0.92320312 -0.95871094 0.92320312 0 0 Z " fill="#000000" transform="translate(370,359)"/>
<path d="M0 0 C3.63303084 1.69586126 5.94549046 3.73800488 8.75 6.625 C9.54921875 7.44226563 10.3484375 8.25953125 11.171875 9.1015625 C11.77515625 9.72804688 12.3784375 10.35453125 13 11 C11.33395508 15.31520719 8.07238166 18.23043297 4.86962891 21.43676758 C3.92785545 22.39102631 3.92785545 22.39102631 2.96705627 23.36456299 C0.8923347 25.46336013 -1.18995086 27.55443713 -3.2734375 29.64453125 C-4.71839045 31.09844862 -6.16326446 32.55244444 -7.60806274 34.0065155 C-10.6357028 37.05063882 -13.66770375 40.0903461 -16.70214844 43.12768555 C-20.59705203 47.0279884 -24.4755242 50.94420827 -28.35025597 54.86453724 C-31.32718774 57.87114008 -34.31523914 60.86649756 -37.30653763 63.85880089 C-38.74200617 65.29848742 -40.17333524 66.74231328 -41.60047531 68.19025612 C-43.59236301 70.20886484 -45.59928961 72.2112167 -47.61083984 74.21020508 C-48.20111465 74.81531418 -48.79138947 75.42042328 -49.39955139 76.04386902 C-51.06478882 77.67951965 -51.06478882 77.67951965 -54 80 C-58.01607071 79.53672514 -59.98422553 77.47922165 -62.8125 74.6875 C-63.62332031 73.90761719 -64.43414062 73.12773437 -65.26953125 72.32421875 C-67 70 -67 70 -66.77227116 68.04140091 C-65.42791578 64.48776787 -62.49176813 62.10436274 -59.82788086 59.48730469 C-59.18399918 58.84298492 -58.54011749 58.19866516 -57.87672424 57.53482056 C-55.74646442 55.40665093 -53.60577495 53.2893045 -51.46484375 51.171875 C-49.98588406 49.69851042 -48.50758529 48.22448214 -47.02992249 46.74981689 C-43.13861441 42.86996421 -39.23838132 38.99920469 -35.33624268 35.13024902 C-31.35611852 31.18081054 -27.38447135 27.22286791 -23.41210938 23.265625 C-15.61636182 15.50205388 -7.81116235 7.74805948 0 0 Z " fill="#000000" transform="translate(140,359)"/>
<path d="M0 0 C2.86689072 1.11600294 4.59986653 2.92720987 6.7787075 5.07789135 C7.58952782 5.85777416 8.40034813 6.63765697 9.23573875 7.4411726 C10.9662075 9.76539135 10.9662075 9.76539135 10.73847866 11.72399044 C9.39412328 15.27762348 6.45797564 17.66102861 3.79408836 20.27808666 C3.15020668 20.92240643 2.506325 21.56672619 1.84293175 22.23057079 C-0.28732808 24.35874042 -2.42801755 26.47608685 -4.56894875 28.59351635 C-6.04790843 30.06688093 -7.52620721 31.54090921 -9.00387001 33.01557446 C-12.89517809 36.89542714 -16.79541117 40.76618666 -20.69754982 44.63514233 C-24.67767397 48.58458081 -28.64932114 52.54252344 -32.62168312 56.49976635 C-40.41743068 64.26333747 -48.22263015 72.01733187 -56.0337925 79.76539135 C-59.66682334 78.06953009 -61.97928295 76.02738647 -64.7837925 73.14039135 C-65.58301125 72.32312572 -66.38223 71.5058601 -67.2056675 70.66382885 C-67.80894875 70.03734447 -68.41223 69.4108601 -69.0337925 68.76539135 C-67.36774757 64.45018416 -64.10617415 61.53495838 -60.9034214 58.32862377 C-60.27557243 57.69245129 -59.64772346 57.0562788 -59.00084877 56.40082836 C-56.92612719 54.30203122 -54.84384164 52.21095422 -52.760355 50.1208601 C-51.31540205 48.66694273 -49.87052804 47.21294691 -48.42572975 45.75887585 C-45.3980897 42.71475253 -42.36608875 39.67504525 -39.33164406 36.6377058 C-35.43674047 32.73740295 -31.55826829 28.82118308 -27.68353653 24.90085411 C-24.70660476 21.89425127 -21.71855336 18.89889379 -18.72725487 15.90659046 C-17.29178632 14.46690393 -15.86045726 13.02307807 -14.43331718 11.57513523 C-12.44142949 9.55652651 -10.43450289 7.55417464 -8.42295265 5.55518627 C-7.83267784 4.95007717 -7.24240303 4.34496807 -6.6342411 3.72152233 C-2.54635281 -0.29373518 -2.54635281 -0.29373518 0 0 Z " fill="#000000" transform="translate(428.03379249572754,73.23460865020752)"/>
<path d="M0 0 C3.55363304 1.34435538 5.93703817 4.28050302 8.55409622 6.9443903 C9.19841599 7.58827198 9.84273575 8.23215366 10.50658035 8.89554691 C12.63474998 11.02580674 14.75209641 13.16649621 16.86952591 15.30742741 C18.34289049 16.78638709 19.81691877 18.26468587 21.29158401 19.74234867 C25.1714367 23.63365675 29.04219622 27.53388983 32.91115189 31.43602848 C36.86059037 35.41615263 40.818533 39.3877998 44.77577591 43.36016178 C52.53934703 51.15590934 60.29334143 58.96110881 68.04140091 66.77227116 C66.34553965 70.405302 64.30339603 72.71776161 61.41640091 75.52227116 C60.59913528 76.32148991 59.78186966 77.12070866 58.93983841 77.94414616 C58.31335403 78.54742741 57.68686966 79.15070866 57.04140091 79.77227116 C52.72619372 78.10622623 49.81096794 74.84465281 46.60463333 71.64190006 C45.96846085 71.01405109 45.33228836 70.38620213 44.67683792 69.73932743 C42.57804078 67.66460585 40.48696378 65.5823203 38.39686966 63.49883366 C36.94295229 62.05388071 35.48895647 60.6090067 34.03488541 59.16420841 C30.99076209 56.13656836 27.95105481 53.10456741 24.91371536 50.07012272 C21.01341251 46.17521913 17.09719264 42.29674695 13.17686367 38.42201519 C10.17026083 35.44508342 7.17490335 32.45703202 4.18260002 29.46573353 C2.74291349 28.03026498 1.29908763 26.59893592 -0.14885521 25.17179585 C-2.16746393 23.17990815 -4.1698158 21.17298155 -6.16880417 19.16143131 C-6.77391327 18.5711565 -7.37902237 17.98088169 -8.00246811 17.37271976 C-9.63811874 15.70748234 -9.63811874 15.70748234 -11.95859909 12.77227116 C-11.49532423 8.75620045 -9.43782074 6.78804563 -6.64609909 3.95977116 C-5.47627487 2.74354069 -5.47627487 2.74354069 -4.28281784 1.50273991 C-1.95859909 -0.22772884 -1.95859909 -0.22772884 0 0 Z " fill="#000000" transform="translate(84.95859909057617,73.22772884368896)"/>
<path d="M0 0 C5.28 0 10.56 0 16 0 C16 32.01 16 64.02 16 97 C10.72 97 5.44 97 0 97 C0 64.99 0 32.98 0 0 Z " fill="#000000" transform="translate(248,410)"/>
<path d="M0 0 C32.01 0 64.02 0 97 0 C97 5.28 97 10.56 97 16 C64.99 16 32.98 16 0 16 C0 10.72 0 5.44 0 0 Z " fill="#000000" transform="translate(410,248)"/>
<path d="M0 0 C32.01 0 64.02 0 97 0 C97 5.28 97 10.56 97 16 C64.99 16 32.98 16 0 16 C0 10.72 0 5.44 0 0 Z " fill="#000000" transform="translate(5,248)"/>
<path d="M0 0 C5.28 0 10.56 0 16 0 C16 32.01 16 64.02 16 97 C10.72 97 5.44 97 0 97 C0 64.99 0 32.98 0 0 Z " fill="#000000" transform="translate(248,5)"/>
</svg>
