<?xml version="1.0" encoding="UTF-8"?>
<svg version="1.1" xmlns="http://www.w3.org/2000/svg" width="512" height="512">
<path d="M0 0 C5.04472093 0.337412 7.39787076 2.47421772 10.66015625 6.17578125 C11.34980469 7.04589844 12.03945312 7.91601562 12.75 8.8125 C13.53246094 9.79605469 14.31492188 10.77960937 15.12109375 11.79296875 C26.10041297 26.15137048 34.0823926 42.36996712 38.75 59.8125 C39.08902344 61.07191406 39.42804688 62.33132812 39.77734375 63.62890625 C44.27534558 84.1704722 43.45360123 107.63052641 37.75 127.8125 C37.55164551 128.55145508 37.35329102 129.29041016 37.14892578 130.05175781 C30.94372416 152.6708778 18.72194205 171.8585579 2.75 188.8125 C2.15058594 189.47636719 1.55117187 190.14023438 0.93359375 190.82421875 C-13.55257194 206.24901289 -33.91339748 217.44961027 -54.25 222.8125 C-54.9291748 223.00569824 -55.60834961 223.19889648 -56.30810547 223.39794922 C-78.6012823 229.58068447 -105.06344789 229.17766594 -127.25 222.8125 C-128.24821777 222.53962158 -128.24821777 222.53962158 -129.26660156 222.26123047 C-147.87438346 217.07385928 -164.51272794 207.12305144 -179.25 194.8125 C-179.88808594 194.29816406 -180.52617187 193.78382813 -181.18359375 193.25390625 C-185.72922228 189.51818927 -189.52399922 185.35731951 -193.25 180.8125 C-194.013125 179.89855469 -194.77625 178.98460937 -195.5625 178.04296875 C-209.27255853 161.01250542 -223.49813385 136.48107019 -222.58984375 113.8828125 C-222.25 111.8125 -222.25 111.8125 -220.75 109.1875 C-217.23765362 107.25570949 -214.10607288 106.94001482 -210.25 107.8125 C-207.875 109.75 -207.875 109.75 -206.6875 111.140625 C-188.81441411 131.92780099 -159.21431302 144.72942002 -132.25 146.8125 C-102.20963303 148.5880031 -72.67361745 140.01564584 -49.25 120.8125 C-47.80753906 119.63300781 -47.80753906 119.63300781 -46.3359375 118.4296875 C-37.97270964 111.19020085 -31.52127043 102.89161735 -25.25 93.8125 C-24.64285156 92.93851562 -24.03570312 92.06453125 -23.41015625 91.1640625 C-12.01483865 73.45144682 -7.03076525 52.03331445 -7.125 31.1875 C-7.1240332 30.22271729 -7.12306641 29.25793457 -7.12207031 28.26391602 C-7.14644636 21.62864631 -7.54325706 15.17134295 -8.421875 8.58984375 C-8.10864899 3.52839615 -5.15216696 0.10193136 0 0 Z M10.75 38.8125 C10.66548584 39.42955811 10.58097168 40.04661621 10.49389648 40.68237305 C5.50755602 76.01779552 -6.77288349 103.57687275 -32.25 128.8125 C-33.29607422 129.85470703 -33.29607422 129.85470703 -34.36328125 130.91796875 C-58.95381343 154.19817062 -93.58483396 164.46449172 -126.86328125 164.0234375 C-147.86911105 163.41018386 -167.99594272 157.8100766 -186.41210938 147.79589844 C-189.65442661 146.06103475 -192.95536294 144.44530471 -196.25 142.8125 C-192.29288883 156.57728994 -182.24630377 167.95369697 -172.25 177.8125 C-171.45078125 178.62203125 -170.6515625 179.4315625 -169.828125 180.265625 C-148.8926316 200.35807839 -119.77167713 210.22426759 -91.1875 210.1875 C-90.16477997 210.18718277 -90.16477997 210.18718277 -89.12139893 210.18685913 C-78.06263833 210.15268616 -67.82364985 209.19651176 -57.25 205.8125 C-56.11433594 205.45027344 -54.97867188 205.08804688 -53.80859375 204.71484375 C-28.20733976 195.62655262 -6.56839837 177.85175411 7.75 154.8125 C8.10642578 154.24128418 8.46285156 153.67006836 8.83007812 153.08154297 C17.0199859 139.6315425 23.0186692 123.49632022 24.75 107.8125 C24.91242188 106.43578125 24.91242188 106.43578125 25.078125 105.03125 C27.47057316 82.11411496 23.26552536 58.90341658 11.75 38.8125 C11.42 38.8125 11.09 38.8125 10.75 38.8125 Z " fill="#000000" transform="translate(238.25,14.1875)"/>
<path d="M0 0 C3.63061213 2.0746355 5.23741468 4.23649122 6.9375 7.9375 C9.28600479 13.02277046 12.40205303 15.48453093 17.25 18.3125 C24.20156228 20.05039057 30.05730274 19.59400472 36.30859375 16.0703125 C37.88788647 15.07094482 39.44495581 14.03669612 41 13 C45.28008339 12.44517437 47.22267217 12.40205551 50.69140625 15.0703125 C53.57543073 18.73024205 53.56720675 20.70459162 53.5625 25.3125 C53.73420817 31.26745463 54.08652159 36.26877983 58 41 C64.65484129 47.01815943 70.55543775 47.1549396 79.3359375 47.328125 C83.78347267 48.1436645 85.26117493 49.46753813 88 53 C88.88331815 57.6815862 88.02355549 60.33957655 85.5625 64.25 C84.88380859 65.21679688 84.88380859 65.21679688 84.19140625 66.203125 C81.20728019 70.70377414 81.453483 75.8119372 82 81 C83.80019954 86.9458019 86.98518809 90.48963166 92 94 C93.051875 94.495 94.10375 94.99 95.1875 95.5 C98.54771113 97.2921126 99.63058855 98.45564096 101 102 C101.1875 105.5 101.1875 105.5 100 109 C98.17132535 110.52758537 96.28499425 111.6121082 94.19921875 112.76171875 C88.07629221 116.20926353 83.95707207 120.0926868 82 127 C80.8756565 135.58717351 83.33206546 140.99809818 88 148 C88.55482563 152.28008339 88.59794449 154.22267217 85.9296875 157.69140625 C82.26975795 160.57543073 80.29540838 160.56720675 75.6875 160.5625 C69.73254537 160.73420817 64.73122017 161.08652159 60 165 C53.98184057 171.65484129 53.8450604 177.55543775 53.671875 186.3359375 C52.84654604 190.83685938 51.69956858 192.3530711 48 195 C43.25900969 195.79326374 40.74336362 194.56903644 36.8125 192 C31.07152982 188.70830242 26.52653726 187.85117098 20 189 C14.03507156 190.82910923 10.53211399 193.95412287 7 199 C6.505 200.051875 6.01 201.10375 5.5 202.1875 C3.7078874 205.54771113 2.54435904 206.63058855 -1 208 C-7.0361007 207.7918586 -7.0361007 207.7918586 -9.59765625 205.6875 C-11.08790275 203.89422287 -11.90094076 202.26445868 -12.8125 200.125 C-15.21600483 195.13451668 -18.27493912 192.26600851 -23.37109375 189.8984375 C-28.95685221 187.98948587 -34.53862171 187.87852433 -39.94921875 190.34375 C-41.79297826 191.41026301 -43.61154858 192.52222237 -45.39453125 193.6875 C-48.62626775 195.3154812 -50.42616197 195.59797551 -54 195 C-56.83984375 192.95703125 -56.83984375 192.95703125 -59 190 C-59.56640625 186.51171875 -59.56640625 186.51171875 -59.5625 182.6875 C-59.73420817 176.73254537 -60.08652159 171.73122017 -64 167 C-70.65484129 160.98184057 -76.55543775 160.8450604 -85.3359375 160.671875 C-89.78347267 159.8563355 -91.26117493 158.53246187 -94 155 C-94.88331815 150.3184138 -94.02355549 147.66042345 -91.5625 143.75 C-91.11003906 143.10546875 -90.65757812 142.4609375 -90.19140625 141.796875 C-87.20728019 137.29622586 -87.453483 132.1880628 -88 127 C-89.80019954 121.0541981 -92.98518809 117.51036834 -98 114 C-99.051875 113.505 -100.10375 113.01 -101.1875 112.5 C-104.54771113 110.7078874 -105.63058855 109.54435904 -107 106 C-106.7918586 99.9638993 -106.7918586 99.9638993 -104.6875 97.40234375 C-102.89422287 95.91209725 -101.26445868 95.09905924 -99.125 94.1875 C-94.0552086 91.745799 -91.52930103 88.62165891 -88.6875 83.75 C-86.70448513 75.81794051 -87.91449493 70.04503918 -91.80859375 62.93359375 C-92.85598354 61.06699232 -92.85598354 61.06699232 -94 60 C-94.48882787 55.76349182 -94.56617132 53.73922746 -91.9296875 50.296875 C-88.27261473 47.42972995 -86.34353282 47.46219315 -81.75 47.5 C-75.14191231 47.31996939 -70.04597193 46.52171511 -65 42 C-59.56506937 35.93493249 -59.46732796 29.21965279 -59.53125 21.453125 C-58.85963635 17.08763629 -57.43730639 15.67959359 -54 13 C-49.3184138 12.11668185 -46.66042345 12.97644451 -42.75 15.4375 C-42.10546875 15.88996094 -41.4609375 16.34242188 -40.796875 16.80859375 C-36.29622586 19.79271981 -31.1880628 19.546517 -26 19 C-20.0541981 17.19980046 -16.51036834 14.01481191 -13 9 C-12.2265625 7.4221875 -12.2265625 7.4221875 -11.4375 5.8125 C-8.76635752 0.58635167 -5.82954453 -0.83279208 0 0 Z M-11.00390625 31.17578125 C-18.31007549 35.62425717 -25.13436322 36.42865725 -33.5625 36.1875 C-34.93245117 36.16719727 -34.93245117 36.16719727 -36.33007812 36.14648438 C-38.55403259 36.11155315 -40.77667952 36.06251586 -43 36 C-43.268125 36.76183594 -43.53625 37.52367187 -43.8125 38.30859375 C-48.29488928 50.11909971 -53.84200955 56.59554858 -65.36328125 61.90625 C-67.21465558 62.6742275 -69.0985167 63.36617223 -71 64 C-70.95359375 65.31613281 -70.9071875 66.63226563 -70.859375 67.98828125 C-70.51100611 81.9602673 -71.59319141 92.05674601 -81 103 C-79.11015361 106.95232298 -76.78571821 110.57695812 -74.4375 114.26953125 C-70.93245865 120.92720489 -70.73771466 127.10329468 -70.875 134.4375 C-70.88402344 135.35982422 -70.89304687 136.28214844 -70.90234375 137.23242188 C-70.9257234 139.48855809 -70.95849084 141.74413684 -71 144 C-70.02160156 144.36351562 -70.02160156 144.36351562 -69.0234375 144.734375 C-57.72960681 149.06534252 -49.98368263 155.07781567 -44.7265625 166.140625 C-43.97191419 168.07187551 -43.48587197 169.98657997 -43 172 C-41.68386719 171.95359375 -40.36773437 171.9071875 -39.01171875 171.859375 C-25.0397327 171.51100611 -14.94325399 172.59319141 -4 182 C-0.04767702 180.11015361 3.57695812 177.78571821 7.26953125 175.4375 C13.92720489 171.93245865 20.10329468 171.73771466 27.4375 171.875 C28.35982422 171.88402344 29.28214844 171.89304687 30.23242188 171.90234375 C32.48855809 171.9257234 34.74413684 171.95849084 37 172 C37.24234375 171.34773437 37.4846875 170.69546875 37.734375 170.0234375 C42.06534252 158.72960681 48.07781567 150.98368263 59.140625 145.7265625 C61.07187551 144.97191419 62.98657997 144.48587197 65 144 C64.95359375 142.68386719 64.9071875 141.36773437 64.859375 140.01171875 C64.51100611 126.0397327 65.59319141 115.94325399 75 105 C73.11015361 101.04767702 70.78571821 97.42304188 68.4375 93.73046875 C64.93245865 87.07279511 64.73771466 80.89670532 64.875 73.5625 C64.88402344 72.64017578 64.89304687 71.71785156 64.90234375 70.76757812 C64.9257234 68.51144191 64.95849084 66.25586316 65 64 C64.23816406 63.731875 63.47632813 63.46375 62.69140625 63.1875 C50.88090029 58.70511072 44.40445142 53.15799045 39.09375 41.63671875 C38.3257725 39.78534442 37.63382777 37.9014833 37 36 C35.68386719 36.04640625 34.36773437 36.0928125 33.01171875 36.140625 C19.93977543 36.46655278 9.94937522 35.89926733 -0.44140625 27.171875 C-4.39285871 24.20085811 -7.78976338 28.72274741 -11.00390625 31.17578125 Z " fill="#000000" transform="translate(355,249)"/>
<path d="M0 0 C2.5 1.5 2.5 1.5 4 4 C4.70259454 7.83233385 5.09540852 10.33967927 2.9098776 13.65230852 C-3.64719464 20.85496185 -10.56563845 27.70423948 -17.45735168 34.58433533 C-18.94298249 36.07111913 -20.42839536 37.55812073 -21.91360968 39.04532057 C-25.98485133 43.12073068 -30.05919863 47.19302338 -34.13407457 51.26479924 C-38.53187287 55.66033368 -42.92679113 60.05874615 -47.32208252 64.45678711 C-55.43003624 72.56892951 -63.54026238 80.67879426 -71.6516798 88.78747293 C-79.14191686 96.27519336 -86.63122248 103.76384385 -94.11960411 111.25341988 C-94.86499471 111.99892505 -94.86499471 111.99892505 -95.62544371 112.75949094 C-97.64262039 114.77697896 -99.65979354 116.79447051 -101.67696087 118.81196787 C-120.58858797 137.72665222 -139.50312722 156.63842202 -158.41897511 175.54888521 C-175.23253409 192.35769437 -192.04349991 209.16909292 -208.85229492 225.98266602 C-227.73748116 244.87320263 -246.62427637 263.76212819 -265.51368445 282.64844328 C-267.52561772 284.66005583 -269.53754705 286.67167232 -271.54947472 288.68329048 C-272.29256073 289.42625788 -272.29256073 289.42625788 -273.05065858 290.18423471 C-280.5405154 297.67295275 -288.0291351 305.1629064 -295.51716042 312.65345573 C-304.02431603 321.16346459 -312.53329198 329.67164765 -321.04454467 338.17755925 C-325.39029901 342.52067671 -329.73523373 346.86460607 -334.07802391 351.21068764 C-338.0473319 355.18295859 -342.01891032 359.15294419 -345.99237295 363.12105913 C-347.43519091 364.56275295 -348.8771519 366.00530498 -350.31820295 367.44876491 C-352.26546125 369.39903036 -354.21572253 371.34624062 -356.16682148 373.29266262 C-356.73552653 373.86370884 -357.30423159 374.43475506 -357.89017013 375.02310571 C-361.42911978 378.54492823 -362.80919853 379.90396762 -367.875 380.3125 C-370.82968653 380.25340627 -371.89058393 380.06564964 -374.5 378.5 C-376.19989414 375.66684309 -376.76102459 373.41374117 -376.55168027 370.1002565 C-374.1911552 361.11369597 -361.01191011 351.87402121 -354.54264832 345.41566467 C-353.05701751 343.92888087 -351.57160464 342.44187927 -350.08639032 340.95467943 C-346.01514867 336.87926932 -341.94080137 332.80697662 -337.86592543 328.73520076 C-333.46812713 324.33966632 -329.07320887 319.94125385 -324.67791748 315.54321289 C-316.56996376 307.43107049 -308.45973762 299.32120574 -300.3483202 291.21252707 C-292.85808314 283.72480664 -285.36877752 276.23615615 -277.88039589 268.74658012 C-277.13500529 268.00107495 -277.13500529 268.00107495 -276.37455629 267.24050906 C-274.35737961 265.22302104 -272.34020646 263.20552949 -270.32303913 261.18803213 C-251.41141203 242.27334778 -232.49687278 223.36157798 -213.58102489 204.45111479 C-196.76746591 187.64230563 -179.95650009 170.83090708 -163.14770508 154.01733398 C-144.26251884 135.12679737 -125.37572363 116.23787181 -106.48631555 97.35155672 C-104.47438228 95.33994417 -102.46245295 93.32832768 -100.45052528 91.31670952 C-99.95513461 90.82139792 -99.45974394 90.32608633 -98.94934142 89.81576529 C-91.4594846 82.32704725 -83.9708649 74.8370936 -76.48283958 67.34654427 C-67.97568397 58.83653541 -59.46670802 50.32835235 -50.95545533 41.82244075 C-46.60970099 37.47932329 -42.26476627 33.13539393 -37.92197609 28.78931236 C-33.9526681 24.81704141 -29.98108968 20.84705581 -26.00762705 16.87894087 C-24.56480909 15.43724705 -23.1228481 13.99469502 -21.68179705 12.55123509 C-19.73453875 10.60096964 -17.78427747 8.65375938 -15.83317852 6.70733738 C-15.26447347 6.13629116 -14.69576841 5.56524494 -14.10982987 4.97689429 C-9.55105512 0.44018222 -6.50718801 -0.88734382 0 0 Z " fill="#000000" transform="translate(424,45)"/>
<path d="M0 0 C12.93899812 14.01086778 15.82467017 29.1096764 15.18359375 47.43164062 C14.78577497 52.99687141 13.17607229 57.90340963 11 63 C10.649375 63.8765625 10.29875 64.753125 9.9375 65.65625 C3.98812901 79.04233472 -7.46938593 87.76197962 -20.78125 93.22265625 C-34.91397714 98.17408706 -51.64714033 97.46285656 -65.34375 91.55859375 C-80.28356208 84.03632856 -89.84575875 73.31887668 -95.2734375 57.5078125 C-99.37170615 43.36217555 -98.37398499 27.25916678 -92 14 C-89.91079085 10.43073608 -87.62177348 7.19389777 -85 4 C-84.22398437 3.01257813 -83.44796875 2.02515625 -82.6484375 1.0078125 C-73.85734573 -9.45438168 -60.30553989 -14.95993196 -47.0625 -16.9375 C-29.30674343 -17.9108222 -12.86117758 -12.34878007 0 0 Z M-69.375 11.625 C-78.0599276 21.01705114 -80.50854065 31.55311301 -80.2734375 43.8828125 C-79.77831526 54.57451157 -74.51363968 62.73650654 -66.93359375 69.97265625 C-57.94529266 77.54598329 -48.4601225 79.89827154 -36.87109375 79.37890625 C-25.23677586 78.24012841 -16.62594156 72.57821408 -9.1875 63.75 C-1.99972391 53.78740803 -0.44264281 42.99397479 -2 31 C-4.63230831 19.96455362 -11.64607637 11.44902016 -21.1875 5.5 C-37.29221057 -3.2686691 -55.73937928 -0.86564494 -69.375 11.625 Z " fill="#000000" transform="translate(393,313)"/>
<path d="M0 0 C12.46153846 6.92307692 12.46153846 6.92307692 14 10 C14.56872038 17.0521327 14.56872038 17.0521327 12.5 20.5 C9.03151898 22.58108861 5.9060293 22.5423845 2 22 C-0.97014507 20.93612922 -3.5994225 19.47364057 -6.3125 17.875 C-7.01439453 17.49601562 -7.71628906 17.11703125 -8.43945312 16.7265625 C-12.90819635 14.17056065 -15.21483592 12.0259235 -17 7 C-16.9194705 3.61776094 -16.29478073 2.35373688 -14.125 -0.25 C-9.25698563 -4.25895301 -5.24502426 -2.33277283 0 0 Z " fill="#000000" transform="translate(464,407)"/>
<path d="M0 0 C1.84984416 0.97996815 3.65977931 2.00936665 5.46630859 3.06689453 C6.08570313 3.41429687 6.70509766 3.76169922 7.34326172 4.11962891 C10.43768727 5.90371139 12.13983269 7.10843068 14.15380859 10.12939453 C14.81134284 17.03350412 14.81134284 17.03350412 12.65380859 20.62939453 C9.19049215 22.7073844 6.05388124 22.70224222 2.15380859 22.12939453 C-0.66839025 21.00339689 -3.122015 19.4779669 -5.65869141 17.81689453 C-6.31289062 17.41277344 -6.96708984 17.00865234 -7.64111328 16.59228516 C-13.61361921 12.84040452 -13.61361921 12.84040452 -15.84619141 10.12939453 C-16.61952474 3.16939453 -16.61952474 3.16939453 -14.03369141 -0.30810547 C-9.06036937 -3.86047835 -5.28804439 -2.49367446 0 0 Z " fill="#000000" transform="translate(241.84619140625,278.87060546875)"/>
<path d="M0 0 C2.44200101 1.66770801 3.36502377 2.63617895 5 5 C5.61359375 5.886875 6.2271875 6.77375 6.859375 7.6875 C10.27570505 13.04430552 13.1061166 17.64796709 12.48046875 24.15234375 C12 26 12 26 10.5 28.5625 C7.65563568 30.19800948 5.30902846 30.75766465 2.015625 30.5625 C-2.01345149 29.43810656 -3.82261547 26.38314047 -6 23 C-6.56203125 22.13117188 -7.1240625 21.26234375 -7.703125 20.3671875 C-11.06602051 14.72569457 -13.15464007 10.58144837 -12 4 C-9.20702732 -0.65495447 -5.05220172 -1.10580319 0 0 Z " fill="#000000" transform="translate(416,449)"/>
<path d="M0 0 C5.18879971 1.37827492 7.71727526 6.92871562 10.25 11.28125 C10.61351562 11.86390625 10.97703125 12.4465625 11.3515625 13.046875 C14.0822467 17.72804792 14.4788381 21.12722001 14 26.53125 C12.5 29.03125 12.5 29.03125 10 30.53125 C4.58173077 31.30528846 4.58173077 31.30528846 2 30.53125 C-4.04402387 25.38819863 -8.7550964 17.80964126 -10.5859375 10.046875 C-10.74222347 6.84902353 -10.13900972 4.76293287 -8.5 2.03125 C-5.49511516 0.22831909 -3.44327882 0.05380123 0 0 Z " fill="#000000" transform="translate(286,226.46875)"/>
<path d="M0 0 C2.4868598 3.7302897 2.60503039 6.67863726 2 11 C1.06514626 13.61786007 -0.23250714 15.88857532 -1.6875 18.25 C-2.02716797 18.848125 -2.36683594 19.44625 -2.71679688 20.0625 C-4.97115169 23.87172758 -7.31573831 26.54779351 -11 29 C-14.73175586 29.62195931 -16.49160462 29.25419769 -19.875 27.5625 C-22.57731645 24.30382428 -22.46788742 22.55194376 -22.36523438 18.44458008 C-21.73199143 14.20616994 -19.66376256 11.07438578 -17.3125 7.5625 C-16.87744141 6.85673828 -16.44238281 6.15097656 -15.99414062 5.42382812 C-14.01572802 2.35509034 -12.58668404 0.3417919 -9.3984375 -1.515625 C-5.81641619 -2.23902995 -3.34949143 -1.32715698 0 0 Z " fill="#000000" transform="translate(298,450)"/>
<path d="M0 0 C2.5625 1.5 2.5625 1.5 4 4 C4.51616523 7.25184097 4.77448046 8.93895818 4 12 C1.95873016 14.32477954 0.57211135 15.41274913 -2 17 C-2.92039062 17.61359375 -3.84078125 18.2271875 -4.7890625 18.859375 C-15.06391387 25.36244549 -15.06391387 25.36244549 -22 24 C-24.5 22.5 -24.5 22.5 -26 20 C-26.65544212 15.41190515 -26.86488302 13.26643584 -24.25 9.4375 C-22.875 8.296875 -22.875 8.296875 -21 7 C-19.6696875 6.07960938 -19.6696875 6.07960938 -18.3125 5.140625 C-12.41309752 1.37825097 -7.12079123 -1.85170681 0 0 Z " fill="#000000" transform="translate(474,277)"/>
<path d="M0 0 C2.5 1.5 2.5 1.5 4 4 C4.67482009 10.74820088 3.1488515 14.65437876 -0.3125 20.375 C-0.71662109 21.08527344 -1.12074219 21.79554688 -1.53710938 22.52734375 C-3.51967051 25.92509893 -4.64602659 27.76401772 -8 30 C-14.90410959 30.65753425 -14.90410959 30.65753425 -18.5 28.5 C-20.58205979 25.02990035 -20.56463613 21.90690386 -20 18 C-18.86903056 15.01027091 -17.33932104 12.3549864 -15.6875 9.625 C-15.28337891 8.91472656 -14.87925781 8.20445312 -14.46289062 7.47265625 C-10.84830036 1.27789504 -7.54659387 -1.18437489 0 0 Z " fill="#000000" transform="translate(424,227)"/>
<path d="M0 0 C2.5 1.5 2.5 1.5 4 4 C4.77403846 9.41826923 4.77403846 9.41826923 4 12 C-1.17183364 18.07784829 -8.71779219 22.67944805 -16.484375 24.62109375 C-20.03069909 24.8410725 -21.77268464 24.18753518 -24.5 21.9375 C-26.37276489 18.27000208 -26.59172793 16.06812955 -26 12 C-23.01369937 8.38309705 -19.26060512 6.08375729 -15.25 3.75 C-14.66734375 3.38648438 -14.0846875 3.02296875 -13.484375 2.6484375 C-8.80320208 -0.0822467 -5.40402999 -0.4788381 0 0 Z " fill="#000000" transform="translate(252,405)"/>
<path d="M0 0 C0.79470703 -0.020625 1.58941406 -0.04125 2.40820312 -0.0625 C7.41456092 -0.09562726 10.85863897 0.45017152 15.1875 3.25 C16.75221233 6.37942465 16.88451958 9.86082223 16.1875 13.25 C14.10284812 15.84666633 12.90171734 17.10747922 9.59375 17.76757812 C8.15515625 17.7743457 8.15515625 17.7743457 6.6875 17.78125 C5.635625 17.78640625 4.58375 17.7915625 3.5 17.796875 C2.406875 17.78140625 1.31375 17.7659375 0.1875 17.75 C-1.4521875 17.77320313 -1.4521875 17.77320313 -3.125 17.796875 C-4.176875 17.79171875 -5.22875 17.7865625 -6.3125 17.78125 C-7.2715625 17.77673828 -8.230625 17.77222656 -9.21875 17.76757812 C-12.52548564 17.107725 -13.72158706 15.83886445 -15.8125 13.25 C-16.54054951 10.50910772 -16.38693241 8.01978794 -15.8125 5.25 C-11.59899117 -0.41644291 -6.45381236 0.04127138 0 0 Z " fill="#000000" transform="translate(223.8125,343.75)"/>
<path d="M0 0 C0.79470703 -0.020625 1.58941406 -0.04125 2.40820312 -0.0625 C7.41456092 -0.09562726 10.85863897 0.45017152 15.1875 3.25 C16.75221233 6.37942465 16.88451958 9.86082223 16.1875 13.25 C14.10284812 15.84666633 12.90171734 17.10747922 9.59375 17.76757812 C8.15515625 17.7743457 8.15515625 17.7743457 6.6875 17.78125 C5.635625 17.78640625 4.58375 17.7915625 3.5 17.796875 C2.406875 17.78140625 1.31375 17.7659375 0.1875 17.75 C-1.4521875 17.77320313 -1.4521875 17.77320313 -3.125 17.796875 C-4.176875 17.79171875 -5.22875 17.7865625 -6.3125 17.78125 C-7.2715625 17.77673828 -8.230625 17.77222656 -9.21875 17.76757812 C-12.52548564 17.107725 -13.72158706 15.83886445 -15.8125 13.25 C-16.54054951 10.50910772 -16.38693241 8.01978794 -15.8125 5.25 C-11.59899117 -0.41644291 -6.45381236 0.04127138 0 0 Z " fill="#000000" transform="translate(479.8125,343.75)"/>
<path d="M0 0 C3.10707593 4.66061389 2.36858465 9.45558512 2.375 14.9375 C2.39949219 16.03513672 2.42398437 17.13277344 2.44921875 18.26367188 C2.45501953 19.84825195 2.45501953 19.84825195 2.4609375 21.46484375 C2.46915527 22.430271 2.47737305 23.39569824 2.48583984 24.39038086 C1.86476824 27.72637805 0.60722656 28.9014043 -2 31 C-4 31.53125 -4 31.53125 -6 31.5 C-6.99 31.51546875 -6.99 31.51546875 -8 31.53125 C-10.91796104 30.7561666 -12.0931088 29.30895833 -14 27 C-14.51757812 24.40625 -14.51757812 24.40625 -14.53125 21.5 C-14.53640625 20.448125 -14.5415625 19.39625 -14.546875 18.3125 C-14.53140625 17.219375 -14.5159375 16.12625 -14.5 15 C-14.51546875 13.906875 -14.5309375 12.81375 -14.546875 11.6875 C-14.53914063 10.1096875 -14.53914063 10.1096875 -14.53125 8.5 C-14.52673828 7.5409375 -14.52222656 6.581875 -14.51757812 5.59375 C-13.8533693 2.26518653 -12.62247954 1.09227742 -10 -1 C-6.00471255 -2.33176248 -3.90144863 -1.41870859 0 0 Z " fill="#000000" transform="translate(358,466)"/>
<path d="M0 0 C3.10707593 4.66061389 2.36858465 9.45558512 2.375 14.9375 C2.39949219 16.03513672 2.42398437 17.13277344 2.44921875 18.26367188 C2.45501953 19.84825195 2.45501953 19.84825195 2.4609375 21.46484375 C2.46915527 22.430271 2.47737305 23.39569824 2.48583984 24.39038086 C1.86476824 27.72637805 0.60722656 28.9014043 -2 31 C-4 31.53125 -4 31.53125 -6 31.5 C-6.99 31.51546875 -6.99 31.51546875 -8 31.53125 C-10.91796104 30.7561666 -12.0931088 29.30895833 -14 27 C-14.51757812 24.40625 -14.51757812 24.40625 -14.53125 21.5 C-14.53640625 20.448125 -14.5415625 19.39625 -14.546875 18.3125 C-14.53140625 17.219375 -14.5159375 16.12625 -14.5 15 C-14.51546875 13.906875 -14.5309375 12.81375 -14.546875 11.6875 C-14.53914063 10.1096875 -14.53914063 10.1096875 -14.53125 8.5 C-14.52673828 7.5409375 -14.52222656 6.581875 -14.51757812 5.59375 C-13.8533693 2.26518653 -12.62247954 1.09227742 -10 -1 C-6.00471255 -2.33176248 -3.90144863 -1.41870859 0 0 Z " fill="#000000" transform="translate(358,210)"/>
</svg>
