<?xml version="1.0" encoding="UTF-8"?>
<svg version="1.1" xmlns="http://www.w3.org/2000/svg" width="512" height="512">
<path d="M0 0 C0.85859619 0.26256592 1.71719238 0.52513184 2.60180664 0.7956543 C17.84318436 5.6846586 32.15561738 12.80981417 44.8125 22.625 C45.72773438 23.31980469 46.64296875 24.01460937 47.5859375 24.73046875 C64.83932596 38.30082729 77.73826931 54.21869916 87.8125 73.625 C88.29396484 74.53306396 88.29396484 74.53306396 88.78515625 75.45947266 C92.82187572 83.15077445 95.70717493 90.91547441 98.125 99.25 C98.36758545 100.08426514 98.6101709 100.91853027 98.86010742 101.77807617 C102.24060655 114.0680845 103.18628397 126.19338767 103.125 138.875 C103.12417419 139.59912079 103.12334839 140.32324158 103.12249756 141.06930542 C103.09419889 151.85392647 102.48818098 162.13093009 99.8125 172.625 C99.44494063 174.10277214 99.07775778 175.58063798 98.7109375 177.05859375 C98.41445313 178.23550781 98.11796875 179.41242188 97.8125 180.625 C98.77027344 180.65078125 99.72804688 180.6765625 100.71484375 180.703125 C118.49034733 181.37828704 137.27130409 185.35333263 152.375 195.125 C158.14544448 198.46441764 162.69395349 197.45497169 169.0625 196.29296875 C188.00598205 192.91866101 208.51101392 198.27990418 224.4375 208.6875 C243.08254419 222.37887932 255.53603339 240.66613826 259.45068359 263.65429688 C260.08633221 268.87330656 260.02107719 274.06320967 259.9375 279.3125 C259.92847656 280.40755859 259.91945313 281.50261719 259.91015625 282.63085938 C259.88688154 285.29581354 259.85419135 287.96028134 259.8125 290.625 C260.62332031 290.91632813 261.43414062 291.20765625 262.26953125 291.5078125 C284.99718834 299.92154353 301.8385071 313.45312299 312.4609375 335.46484375 C320.90155268 355.20027058 321.99069031 378.65051307 313.96679688 398.74267578 C310.13427111 407.64251666 305.38631018 415.46042677 298.8125 422.625 C298.14863281 423.38039063 297.48476563 424.13578125 296.80078125 424.9140625 C283.34130551 439.39357244 264.2577516 447.9592749 244.59375 448.9453125 C231.19640534 449.34371614 219.26334064 447.85011649 206.8125 442.625 C205.83023438 443.76775391 205.83023438 443.76775391 204.828125 444.93359375 C190.52512624 461.25674508 172.11609159 473.08084783 150.02294922 474.84814453 C127.15803918 476.03704531 108.29554017 471.30292548 89.8125 457.625 C89.41160156 458.37523437 89.01070313 459.12546875 88.59765625 459.8984375 C78.02806444 478.92849623 62.85983024 491.07479434 42.2578125 497.6796875 C22.88607635 502.99483506 2.95375739 499.39464519 -14.42578125 489.8828125 C-31.28367414 480.08440336 -42.62896424 464.0803376 -47.7421875 445.390625 C-47.88914063 444.80796875 -48.03609375 444.2253125 -48.1875 443.625 C-48.95191406 443.769375 -49.71632812 443.91375 -50.50390625 444.0625 C-74.38182509 448.20018991 -96.92114072 444.27756706 -117.1875 430.625 C-136.05796247 416.66602776 -147.80747641 397.48494819 -151.5625 374.3125 C-153.94473035 352.39139954 -149.14491553 330.34705144 -135.625 312.625 C-134.48883806 311.28341592 -133.34347285 309.94955222 -132.1875 308.625 C-131.6925 307.97660156 -131.1975 307.32820313 -130.6875 306.66015625 C-119.88113164 293.0171162 -101.20226289 283.32371617 -84.1875 280.625 C-82.52129007 280.58598406 -80.85338253 280.57388086 -79.1875 280.625 C-79.1875 279.965 -79.1875 279.305 -79.1875 278.625 C-79.78433594 278.48964844 -80.38117188 278.35429687 -80.99609375 278.21484375 C-101.12362344 273.2203453 -119.71957367 263.40950848 -135.1875 249.625 C-136.02539062 248.90699219 -136.86328125 248.18898437 -137.7265625 247.44921875 C-160.35061627 227.73197065 -180.97262047 196.9210505 -183.46484375 166.20703125 C-183.1875 163.625 -183.1875 163.625 -181.125 160.75 C-178.1875 158.625 -178.1875 158.625 -174.6875 158.0625 C-168.23804731 159.09901918 -165.18409348 163.70198749 -161.12890625 168.4140625 C-144.0251404 187.89239544 -119.22754853 200.92961431 -93.17822266 202.84643555 C-60.51865378 204.05882575 -32.80737348 195.4376301 -8.671875 173.06201172 C9.99324064 154.99246062 21.74531895 128.59307225 22.8125 102.625 C22.8640625 101.8515625 22.915625 101.078125 22.96875 100.28125 C24.02506081 71.76085804 12.38935114 44.4922647 -6.796875 23.8125 C-10.44896725 20.09400608 -14.13228342 16.63083123 -18.25 13.4375 C-20.89260375 11.22595927 -21.19861574 10.58980015 -22.3125 7.0625 C-22.17435527 3.26352004 -21.5319305 1.57724581 -19.1875 -1.375 C-13.30780757 -4.31484621 -5.90551073 -1.8172166 0 0 Z M18.8125 27.625 C19.32039062 28.46160156 19.82828125 29.29820313 20.3515625 30.16015625 C32.55225899 50.63352012 39.21991706 72.64313155 39.1875 96.5625 C39.18695618 97.24208771 39.18641235 97.92167542 39.18585205 98.62185669 C39.05720889 133.71931356 25.23039974 163.12966364 0.55078125 187.89453125 C-22.29722804 209.45852018 -52.11255642 220.04426213 -83.25 220 C-83.92969849 219.99912384 -84.60939697 219.99824768 -85.30969238 219.99734497 C-96.65907083 219.94926566 -107.31074206 219.0256438 -118.1875 215.625 C-118.98043457 215.37830566 -119.77336914 215.13161133 -120.59033203 214.87744141 C-131.58701142 211.34488555 -141.37312456 206.69422161 -151.1875 200.625 C-151.8475 200.295 -152.5075 199.965 -153.1875 199.625 C-151.83810833 204.43492838 -149.73301313 208.18813636 -146.8125 212.1875 C-146.37405762 212.79174805 -145.93561523 213.39599609 -145.48388672 214.01855469 C-128.67479024 236.70227393 -103.3620706 256.8447134 -75.1875 262.625 C-71.35641358 261.61504752 -69.9523975 259.17506698 -67.875 255.9375 C-59.18376286 243.18425308 -47.15252167 235.52030711 -32.1875 231.625 C-31.45917969 231.42519531 -30.73085937 231.22539062 -29.98046875 231.01953125 C-27.38052547 230.65226654 -25.07502229 230.62992584 -22.45703125 230.6953125 C-11.99230439 231.28900303 -11.99230439 231.28900303 -2.76171875 227.2890625 C-0.3113815 224.51523612 1.73881114 221.6853634 3.8125 218.625 C5.44212891 216.92210095 7.10735175 215.25227533 8.8125 213.625 C9.71548828 212.70847656 9.71548828 212.70847656 10.63671875 211.7734375 C28.74253625 194.54064684 54.31572617 184.78739662 78.8125 181.625 C79.61293454 179.19009034 80.40282336 176.75249167 81.1875 174.3125 C81.40921875 173.64154297 81.6309375 172.97058594 81.859375 172.27929688 C85.32041654 161.43809324 86.20353955 150.98099942 86.1875 139.625 C86.18618576 138.60170593 86.18618576 138.60170593 86.18484497 137.55773926 C86.13681399 126.18652955 85.21198668 115.52421013 81.8125 104.625 C81.57112305 103.8427002 81.32974609 103.06040039 81.08105469 102.25439453 C75.64488408 85.18345124 67.33771506 70.30413619 55.8125 56.625 C55.38743164 56.11485352 54.96236328 55.60470703 54.52441406 55.07910156 C45.25339015 44.07804459 33.8181883 33.99348787 20.8125 27.625 C20.1525 27.625 19.4925 27.625 18.8125 27.625 Z M9.15234375 236.80078125 C6.72994693 239.60828237 6.72994693 239.60828237 4.71875 242.890625 C2.8125 245.625 2.8125 245.625 -0.625 247.0625 C-4.14480911 247.61825933 -5.78253917 247.31179608 -9.1875 246.625 C-23.52572822 245.66702418 -34.5115733 247.82575089 -46.1875 256.625 C-47.05375 257.2025 -47.92 257.78 -48.8125 258.375 C-58.22884843 267.29575115 -62.08859651 278.33410425 -64.0859375 290.83984375 C-65.1875 293.625 -65.1875 293.625 -67.87890625 295.44921875 C-71.26131898 296.65123319 -74.18292457 297.16106583 -77.75 297.5 C-94.69814083 299.67879155 -109.32979007 308.26999035 -120.3828125 321.19140625 C-131.90676833 336.24265654 -137.01186882 353.28576705 -134.5625 372.1875 C-131.16211576 390.44219436 -122.24293435 405.95828227 -107.046875 416.8828125 C-100.40219966 421.14989074 -93.78403453 424.45456156 -86.1875 426.625 C-85.00994141 426.96144531 -85.00994141 426.96144531 -83.80859375 427.3046875 C-71.65360126 430.2282936 -60.51629861 429.01177943 -48.79711914 425.22827148 C-43.65224547 423.64964992 -40.29901564 423.29091505 -35.1875 425.625 C-32.9646413 428.48027765 -32.80697307 431.59326412 -32.375 435.125 C-30.09909216 449.51574035 -22.42076807 462.35707214 -11.1875 471.625 C2.60865093 481.44496769 17.49683909 484.43270184 34.03515625 482.1875 C49.1396264 479.00342197 61.78133873 470.0313333 70.25 457.26953125 C73.66831812 451.48402784 76.20875099 445.3662846 78.5 439.0625 C79.8125 435.625 79.8125 435.625 81.8125 433.625 C87.34739848 432.98984772 87.34739848 432.98984772 89.8125 433.625 C92.2734375 435.8828125 92.2734375 435.8828125 94.8125 438.625 C100.74987075 444.16455696 106.7705187 448.42878544 114 452.0625 C114.65266846 452.3922583 115.30533691 452.7220166 115.9777832 453.06176758 C129.86643362 459.75006066 145.55704753 459.96139133 160.19921875 455.62109375 C175.8313575 450.01572329 187.41468725 440.46153359 196.4375 426.55859375 C197.8125 424.625 197.8125 424.625 199.8125 423.625 C205.15553914 423.22394864 208.45508341 424.05783934 213.1875 426.5 C225.50161715 432.82511725 241.23986167 433.80434138 254.6875 430.5625 C272.30938047 424.62409201 286.21422167 414.18792682 295.375 397.8359375 C302.98069259 382.12656054 304.50351737 364.22890013 298.8125 347.625 C292.35722779 331.18336652 280.339063 318.23185935 264.27734375 310.68359375 C256.94986155 307.53660853 249.67934399 305.87487241 241.8125 304.625 C240.04599892 299.32549675 240.55822843 294.39982582 241.8125 289.0625 C245.02846016 273.79834127 242.52342445 257.56149669 234.5078125 244.1484375 C223.01422494 227.04047076 208.47891179 217.07322313 188.1875 212.875 C180.63829577 212.31579969 174.04353594 212.44803601 166.625 214.1875 C158.09463531 216.10474809 153.99645054 216.09092971 146.5 211.5 C100.4930782 183.33959195 43.69366475 198.7274154 9.15234375 236.80078125 Z " fill="#000000" transform="translate(188.1875,7.375)"/>
</svg>
