<?xml version="1.0" encoding="UTF-8"?>
<svg version="1.1" xmlns="http://www.w3.org/2000/svg" width="512" height="512">
<path d="M0 0 C1.11359894 -0.00686325 2.22719788 -0.0137265 3.37454224 -0.02079773 C7.02863586 -0.03898795 10.68229691 -0.03523894 14.33642578 -0.02954102 C16.89413593 -0.0341067 19.45184485 -0.03941343 22.009552 -0.04542542 C27.36059134 -0.05434144 32.71147535 -0.05218712 38.0625 -0.04199219 C44.21902194 -0.03052067 50.37510773 -0.04458137 56.53157222 -0.07138866 C62.48923592 -0.09634422 68.44676587 -0.09870192 74.4044838 -0.0922718 C76.92329763 -0.09211911 79.44212006 -0.09812059 81.96090317 -0.11056328 C85.49248816 -0.12555218 89.02313064 -0.11473698 92.5546875 -0.09765625 C93.58051941 -0.10732422 94.60635132 -0.11699219 95.66326904 -0.12695312 C109.46756076 0.01184169 120.1673339 5.4484839 130.15673828 14.71655273 C139.7261004 24.82757686 142.8702931 36.38451509 142.81079102 49.99731445 C142.81765427 51.11091339 142.82451752 52.22451233 142.83158875 53.37185669 C142.84977896 57.02595032 142.84602996 60.67961137 142.84033203 64.33374023 C142.84489772 66.89145038 142.85020444 69.4491593 142.85621643 72.00686646 C142.86513246 77.35790579 142.86297813 82.70878981 142.8527832 88.05981445 C142.84131169 94.21633639 142.85537239 100.37242219 142.88217968 106.52888668 C142.90713524 112.48655037 142.90949294 118.44408033 142.90306282 124.40179825 C142.90291012 126.92061208 142.90891161 129.43943452 142.92135429 131.95821762 C142.93634319 135.48980261 142.925528 139.02044509 142.90844727 142.55200195 C142.92294922 144.09074982 142.92294922 144.09074982 142.93774414 145.6605835 C142.79894933 159.46487521 137.36230712 170.16464835 128.09423828 180.15405273 C117.98321416 189.72341485 106.42627592 192.86760755 92.81347656 192.80810547 C91.69987762 192.81496872 90.58627869 192.82183197 89.43893433 192.8289032 C85.7848407 192.84709342 82.13117965 192.84334441 78.47705078 192.83764648 C75.91934064 192.84221217 73.36163172 192.84751889 70.80392456 192.85353088 C65.45288522 192.86244691 60.10200121 192.86029259 54.75097656 192.85009766 C48.59445463 192.83862614 42.43836883 192.85268684 36.28190434 192.87949413 C30.32424065 192.90444969 24.36671069 192.90680739 18.40899277 192.90037727 C15.89017893 192.90022457 13.3713565 192.90622606 10.85257339 192.91866875 C7.3209884 192.93365765 3.79034593 192.92284245 0.25878906 192.90576172 C-1.2799588 192.92026367 -1.2799588 192.92026367 -2.84979248 192.93505859 C-16.6540842 192.79626378 -27.35385734 187.35962157 -37.34326172 178.09155273 C-46.91262384 167.98052861 -50.05681654 156.42359038 -49.99731445 142.81079102 C-50.0041777 141.69719208 -50.01104095 140.58359314 -50.01811218 139.43624878 C-50.0363024 135.78215515 -50.0325534 132.1284941 -50.02685547 128.47436523 C-50.03142116 125.91665509 -50.03672788 123.35894617 -50.04273987 120.80123901 C-50.05165589 115.45019968 -50.04950157 110.09931566 -50.03930664 104.74829102 C-50.02783513 98.59176908 -50.04189583 92.43568328 -50.06870311 86.27921879 C-50.09365868 80.3215551 -50.09601638 74.36402514 -50.08958626 68.40630722 C-50.08943356 65.88749339 -50.09543505 63.36867095 -50.10787773 60.84988785 C-50.12286663 57.31830286 -50.11205144 53.78766038 -50.0949707 50.25610352 C-50.10463867 49.23027161 -50.11430664 48.2044397 -50.12426758 47.14752197 C-49.98547277 33.34323025 -44.54883055 22.64345712 -35.28076172 12.65405273 C-25.1697376 3.08469062 -13.61279936 -0.05950209 0 0 Z M-13.53076172 38.15405273 C-17.54525989 44.47992864 -17.88887714 50.60724375 -17.86791992 57.8684082 C-17.87303085 58.79131653 -17.87814178 59.71422485 -17.88340759 60.6651001 C-17.89724965 63.70054705 -17.8963508 66.73576556 -17.89404297 69.77124023 C-17.89793297 71.89201949 -17.90226827 74.01279796 -17.9070282 76.13357544 C-17.91447893 80.57353239 -17.91420752 85.01340981 -17.90893555 89.45336914 C-17.90314382 95.12804577 -17.92007052 100.80239571 -17.94328022 106.47701836 C-17.95805055 110.85578294 -17.95888474 115.23446946 -17.95577049 119.61325455 C-17.95628209 121.70471976 -17.96148929 123.79618954 -17.97158241 125.88763046 C-17.98399286 128.81893564 -17.97712737 131.74961222 -17.96557617 134.6809082 C-17.97321991 135.5352243 -17.98086365 136.38954041 -17.98873901 137.26974487 C-17.9357648 143.38722019 -17.2696909 150.05652972 -13.31834888 154.99864006 C-7.2445633 160.52818694 0.12711019 160.70106167 7.87109375 160.67871094 C8.79400208 160.68382187 9.7169104 160.6889328 10.66778564 160.69419861 C13.7032326 160.70804067 16.73845111 160.70714182 19.77392578 160.70483398 C21.89470503 160.70872399 24.01548351 160.71305929 26.13626099 160.71781921 C30.57621794 160.72526994 35.01609535 160.72499853 39.45605469 160.71972656 C45.13073132 160.71393483 50.80508125 160.73086154 56.4797039 160.75407124 C60.85846849 160.76884156 65.23715501 160.76967575 69.61594009 160.76656151 C71.70740531 160.7670731 73.79887508 160.77228031 75.89031601 160.78237343 C78.82162119 160.79478388 81.75229776 160.78791839 84.68359375 160.77636719 C85.53790985 160.78401093 86.39222595 160.79165466 87.27243042 160.79953003 C93.38990573 160.74655582 100.05921526 160.08048192 105.00132561 156.1291399 C110.53087249 150.05535431 110.70374722 142.68368082 110.68139648 134.93969727 C110.68650742 134.01678894 110.69161835 133.09388062 110.69688416 132.14300537 C110.71072621 129.10755842 110.70982737 126.0723399 110.70751953 123.03686523 C110.71140954 120.91608598 110.71574483 118.79530751 110.72050476 116.67453003 C110.72795549 112.23457308 110.72768408 107.79469566 110.72241211 103.35473633 C110.71662038 97.6800597 110.73354709 92.00570976 110.75675678 86.33108711 C110.77152711 81.95232253 110.7723613 77.57363601 110.76924706 73.19485092 C110.76975865 71.1033857 110.77496585 69.01191593 110.78505898 66.92047501 C110.79746942 63.98916983 110.79060393 61.05849325 110.77905273 58.12719727 C110.78669647 57.27288116 110.79434021 56.41856506 110.80221558 55.5383606 C110.74924137 49.42088528 110.08316747 42.75157575 106.13182545 37.80946541 C100.05803986 32.27991852 92.68636637 32.1070438 84.94238281 32.12939453 C84.01947449 32.1242836 83.09656616 32.11917267 82.14569092 32.11390686 C79.11024396 32.1000648 76.07502545 32.10096365 73.03955078 32.10327148 C70.91877153 32.09938148 68.79799305 32.09504618 66.67721558 32.09028625 C62.23725863 32.08283553 57.79738121 32.08310693 53.35742188 32.08837891 C47.68274524 32.09417064 42.00839531 32.07724393 36.33377266 32.05403423 C31.95500807 32.03926391 27.57632156 32.03842972 23.19753647 32.04154396 C21.10607125 32.04103237 19.01460148 32.03582516 16.92316055 32.02573204 C13.99185538 32.01332159 11.0611788 32.02018708 8.12988281 32.03173828 C6.84840866 32.02027267 6.84840866 32.02027267 5.54104614 32.00857544 C-1.25862551 32.06745712 -8.72042706 32.87026694 -13.53076172 38.15405273 Z " fill="#000000" transform="translate(97.59326171875,271.595947265625)"/>
<path d="M0 0 C1.11359894 -0.00686325 2.22719788 -0.0137265 3.37454224 -0.02079773 C7.02863586 -0.03898795 10.68229691 -0.03523894 14.33642578 -0.02954102 C16.89413593 -0.0341067 19.45184485 -0.03941343 22.009552 -0.04542542 C27.36059134 -0.05434144 32.71147535 -0.05218712 38.0625 -0.04199219 C44.21902194 -0.03052067 50.37510773 -0.04458137 56.53157222 -0.07138866 C62.48923592 -0.09634422 68.44676587 -0.09870192 74.4044838 -0.0922718 C76.92329763 -0.09211911 79.44212006 -0.09812059 81.96090317 -0.11056328 C85.49248816 -0.12555218 89.02313064 -0.11473698 92.5546875 -0.09765625 C93.58051941 -0.10732422 94.60635132 -0.11699219 95.66326904 -0.12695312 C109.46756076 0.01184169 120.1673339 5.4484839 130.15673828 14.71655273 C139.7261004 24.82757686 142.8702931 36.38451509 142.81079102 49.99731445 C142.81765427 51.11091339 142.82451752 52.22451233 142.83158875 53.37185669 C142.84977896 57.02595032 142.84602996 60.67961137 142.84033203 64.33374023 C142.84489772 66.89145038 142.85020444 69.4491593 142.85621643 72.00686646 C142.86513246 77.35790579 142.86297813 82.70878981 142.8527832 88.05981445 C142.84131169 94.21633639 142.85537239 100.37242219 142.88217968 106.52888668 C142.90713524 112.48655037 142.90949294 118.44408033 142.90306282 124.40179825 C142.90291012 126.92061208 142.90891161 129.43943452 142.92135429 131.95821762 C142.93634319 135.48980261 142.925528 139.02044509 142.90844727 142.55200195 C142.92294922 144.09074982 142.92294922 144.09074982 142.93774414 145.6605835 C142.79894933 159.46487521 137.36230712 170.16464835 128.09423828 180.15405273 C117.98321416 189.72341485 106.42627592 192.86760755 92.81347656 192.80810547 C91.69987762 192.81496872 90.58627869 192.82183197 89.43893433 192.8289032 C85.7848407 192.84709342 82.13117965 192.84334441 78.47705078 192.83764648 C75.91934064 192.84221217 73.36163172 192.84751889 70.80392456 192.85353088 C65.45288522 192.86244691 60.10200121 192.86029259 54.75097656 192.85009766 C48.59445463 192.83862614 42.43836883 192.85268684 36.28190434 192.87949413 C30.32424065 192.90444969 24.36671069 192.90680739 18.40899277 192.90037727 C15.89017893 192.90022457 13.3713565 192.90622606 10.85257339 192.91866875 C7.3209884 192.93365765 3.79034593 192.92284245 0.25878906 192.90576172 C-1.2799588 192.92026367 -1.2799588 192.92026367 -2.84979248 192.93505859 C-16.6540842 192.79626378 -27.35385734 187.35962157 -37.34326172 178.09155273 C-46.91262384 167.98052861 -50.05681654 156.42359038 -49.99731445 142.81079102 C-50.0041777 141.69719208 -50.01104095 140.58359314 -50.01811218 139.43624878 C-50.0363024 135.78215515 -50.0325534 132.1284941 -50.02685547 128.47436523 C-50.03142116 125.91665509 -50.03672788 123.35894617 -50.04273987 120.80123901 C-50.05165589 115.45019968 -50.04950157 110.09931566 -50.03930664 104.74829102 C-50.02783513 98.59176908 -50.04189583 92.43568328 -50.06870311 86.27921879 C-50.09365868 80.3215551 -50.09601638 74.36402514 -50.08958626 68.40630722 C-50.08943356 65.88749339 -50.09543505 63.36867095 -50.10787773 60.84988785 C-50.12286663 57.31830286 -50.11205144 53.78766038 -50.0949707 50.25610352 C-50.10463867 49.23027161 -50.11430664 48.2044397 -50.12426758 47.14752197 C-49.98547277 33.34323025 -44.54883055 22.64345712 -35.28076172 12.65405273 C-25.1697376 3.08469062 -13.61279936 -0.05950209 0 0 Z M-13.53076172 38.15405273 C-17.54525989 44.47992864 -17.88887714 50.60724375 -17.86791992 57.8684082 C-17.87303085 58.79131653 -17.87814178 59.71422485 -17.88340759 60.6651001 C-17.89724965 63.70054705 -17.8963508 66.73576556 -17.89404297 69.77124023 C-17.89793297 71.89201949 -17.90226827 74.01279796 -17.9070282 76.13357544 C-17.91447893 80.57353239 -17.91420752 85.01340981 -17.90893555 89.45336914 C-17.90314382 95.12804577 -17.92007052 100.80239571 -17.94328022 106.47701836 C-17.95805055 110.85578294 -17.95888474 115.23446946 -17.95577049 119.61325455 C-17.95628209 121.70471976 -17.96148929 123.79618954 -17.97158241 125.88763046 C-17.98399286 128.81893564 -17.97712737 131.74961222 -17.96557617 134.6809082 C-17.97321991 135.5352243 -17.98086365 136.38954041 -17.98873901 137.26974487 C-17.9357648 143.38722019 -17.2696909 150.05652972 -13.31834888 154.99864006 C-7.2445633 160.52818694 0.12711019 160.70106167 7.87109375 160.67871094 C8.79400208 160.68382187 9.7169104 160.6889328 10.66778564 160.69419861 C13.7032326 160.70804067 16.73845111 160.70714182 19.77392578 160.70483398 C21.89470503 160.70872399 24.01548351 160.71305929 26.13626099 160.71781921 C30.57621794 160.72526994 35.01609535 160.72499853 39.45605469 160.71972656 C45.13073132 160.71393483 50.80508125 160.73086154 56.4797039 160.75407124 C60.85846849 160.76884156 65.23715501 160.76967575 69.61594009 160.76656151 C71.70740531 160.7670731 73.79887508 160.77228031 75.89031601 160.78237343 C78.82162119 160.79478388 81.75229776 160.78791839 84.68359375 160.77636719 C85.53790985 160.78401093 86.39222595 160.79165466 87.27243042 160.79953003 C93.38990573 160.74655582 100.05921526 160.08048192 105.00132561 156.1291399 C110.53087249 150.05535431 110.70374722 142.68368082 110.68139648 134.93969727 C110.68650742 134.01678894 110.69161835 133.09388062 110.69688416 132.14300537 C110.71072621 129.10755842 110.70982737 126.0723399 110.70751953 123.03686523 C110.71140954 120.91608598 110.71574483 118.79530751 110.72050476 116.67453003 C110.72795549 112.23457308 110.72768408 107.79469566 110.72241211 103.35473633 C110.71662038 97.6800597 110.73354709 92.00570976 110.75675678 86.33108711 C110.77152711 81.95232253 110.7723613 77.57363601 110.76924706 73.19485092 C110.76975865 71.1033857 110.77496585 69.01191593 110.78505898 66.92047501 C110.79746942 63.98916983 110.79060393 61.05849325 110.77905273 58.12719727 C110.78669647 57.27288116 110.79434021 56.41856506 110.80221558 55.5383606 C110.74924137 49.42088528 110.08316747 42.75157575 106.13182545 37.80946541 C100.05803986 32.27991852 92.68636637 32.1070438 84.94238281 32.12939453 C84.01947449 32.1242836 83.09656616 32.11917267 82.14569092 32.11390686 C79.11024396 32.1000648 76.07502545 32.10096365 73.03955078 32.10327148 C70.91877153 32.09938148 68.79799305 32.09504618 66.67721558 32.09028625 C62.23725863 32.08283553 57.79738121 32.08310693 53.35742188 32.08837891 C47.68274524 32.09417064 42.00839531 32.07724393 36.33377266 32.05403423 C31.95500807 32.03926391 27.57632156 32.03842972 23.19753647 32.04154396 C21.10607125 32.04103237 19.01460148 32.03582516 16.92316055 32.02573204 C13.99185538 32.01332159 11.0611788 32.02018708 8.12988281 32.03173828 C6.84840866 32.02027267 6.84840866 32.02027267 5.54104614 32.00857544 C-1.25862551 32.06745712 -8.72042706 32.87026694 -13.53076172 38.15405273 Z " fill="#000000" transform="translate(321.59326171875,47.595947265625)"/>
<path d="M0 0 C1.11359894 -0.00686325 2.22719788 -0.0137265 3.37454224 -0.02079773 C7.02863586 -0.03898795 10.68229691 -0.03523894 14.33642578 -0.02954102 C16.89413593 -0.0341067 19.45184485 -0.03941343 22.009552 -0.04542542 C27.36059134 -0.05434144 32.71147535 -0.05218712 38.0625 -0.04199219 C44.21902194 -0.03052067 50.37510773 -0.04458137 56.53157222 -0.07138866 C62.48923592 -0.09634422 68.44676587 -0.09870192 74.4044838 -0.0922718 C76.92329763 -0.09211911 79.44212006 -0.09812059 81.96090317 -0.11056328 C85.49248816 -0.12555218 89.02313064 -0.11473698 92.5546875 -0.09765625 C93.58051941 -0.10732422 94.60635132 -0.11699219 95.66326904 -0.12695312 C109.46756076 0.01184169 120.1673339 5.4484839 130.15673828 14.71655273 C139.7261004 24.82757686 142.8702931 36.38451509 142.81079102 49.99731445 C142.81765427 51.11091339 142.82451752 52.22451233 142.83158875 53.37185669 C142.84977896 57.02595032 142.84602996 60.67961137 142.84033203 64.33374023 C142.84489772 66.89145038 142.85020444 69.4491593 142.85621643 72.00686646 C142.86513246 77.35790579 142.86297813 82.70878981 142.8527832 88.05981445 C142.84131169 94.21633639 142.85537239 100.37242219 142.88217968 106.52888668 C142.90713524 112.48655037 142.90949294 118.44408033 142.90306282 124.40179825 C142.90291012 126.92061208 142.90891161 129.43943452 142.92135429 131.95821762 C142.93634319 135.48980261 142.925528 139.02044509 142.90844727 142.55200195 C142.92294922 144.09074982 142.92294922 144.09074982 142.93774414 145.6605835 C142.79894933 159.46487521 137.36230712 170.16464835 128.09423828 180.15405273 C117.98321416 189.72341485 106.42627592 192.86760755 92.81347656 192.80810547 C91.69987762 192.81496872 90.58627869 192.82183197 89.43893433 192.8289032 C85.7848407 192.84709342 82.13117965 192.84334441 78.47705078 192.83764648 C75.91934064 192.84221217 73.36163172 192.84751889 70.80392456 192.85353088 C65.45288522 192.86244691 60.10200121 192.86029259 54.75097656 192.85009766 C48.59445463 192.83862614 42.43836883 192.85268684 36.28190434 192.87949413 C30.32424065 192.90444969 24.36671069 192.90680739 18.40899277 192.90037727 C15.89017893 192.90022457 13.3713565 192.90622606 10.85257339 192.91866875 C7.3209884 192.93365765 3.79034593 192.92284245 0.25878906 192.90576172 C-1.2799588 192.92026367 -1.2799588 192.92026367 -2.84979248 192.93505859 C-16.6540842 192.79626378 -27.35385734 187.35962157 -37.34326172 178.09155273 C-46.91262384 167.98052861 -50.05681654 156.42359038 -49.99731445 142.81079102 C-50.0041777 141.69719208 -50.01104095 140.58359314 -50.01811218 139.43624878 C-50.0363024 135.78215515 -50.0325534 132.1284941 -50.02685547 128.47436523 C-50.03142116 125.91665509 -50.03672788 123.35894617 -50.04273987 120.80123901 C-50.05165589 115.45019968 -50.04950157 110.09931566 -50.03930664 104.74829102 C-50.02783513 98.59176908 -50.04189583 92.43568328 -50.06870311 86.27921879 C-50.09365868 80.3215551 -50.09601638 74.36402514 -50.08958626 68.40630722 C-50.08943356 65.88749339 -50.09543505 63.36867095 -50.10787773 60.84988785 C-50.12286663 57.31830286 -50.11205144 53.78766038 -50.0949707 50.25610352 C-50.10463867 49.23027161 -50.11430664 48.2044397 -50.12426758 47.14752197 C-49.98547277 33.34323025 -44.54883055 22.64345712 -35.28076172 12.65405273 C-25.1697376 3.08469062 -13.61279936 -0.05950209 0 0 Z M-13.53076172 38.15405273 C-17.54525989 44.47992864 -17.88887714 50.60724375 -17.86791992 57.8684082 C-17.87303085 58.79131653 -17.87814178 59.71422485 -17.88340759 60.6651001 C-17.89724965 63.70054705 -17.8963508 66.73576556 -17.89404297 69.77124023 C-17.89793297 71.89201949 -17.90226827 74.01279796 -17.9070282 76.13357544 C-17.91447893 80.57353239 -17.91420752 85.01340981 -17.90893555 89.45336914 C-17.90314382 95.12804577 -17.92007052 100.80239571 -17.94328022 106.47701836 C-17.95805055 110.85578294 -17.95888474 115.23446946 -17.95577049 119.61325455 C-17.95628209 121.70471976 -17.96148929 123.79618954 -17.97158241 125.88763046 C-17.98399286 128.81893564 -17.97712737 131.74961222 -17.96557617 134.6809082 C-17.97321991 135.5352243 -17.98086365 136.38954041 -17.98873901 137.26974487 C-17.9357648 143.38722019 -17.2696909 150.05652972 -13.31834888 154.99864006 C-7.2445633 160.52818694 0.12711019 160.70106167 7.87109375 160.67871094 C8.79400208 160.68382187 9.7169104 160.6889328 10.66778564 160.69419861 C13.7032326 160.70804067 16.73845111 160.70714182 19.77392578 160.70483398 C21.89470503 160.70872399 24.01548351 160.71305929 26.13626099 160.71781921 C30.57621794 160.72526994 35.01609535 160.72499853 39.45605469 160.71972656 C45.13073132 160.71393483 50.80508125 160.73086154 56.4797039 160.75407124 C60.85846849 160.76884156 65.23715501 160.76967575 69.61594009 160.76656151 C71.70740531 160.7670731 73.79887508 160.77228031 75.89031601 160.78237343 C78.82162119 160.79478388 81.75229776 160.78791839 84.68359375 160.77636719 C85.53790985 160.78401093 86.39222595 160.79165466 87.27243042 160.79953003 C93.38990573 160.74655582 100.05921526 160.08048192 105.00132561 156.1291399 C110.53087249 150.05535431 110.70374722 142.68368082 110.68139648 134.93969727 C110.68650742 134.01678894 110.69161835 133.09388062 110.69688416 132.14300537 C110.71072621 129.10755842 110.70982737 126.0723399 110.70751953 123.03686523 C110.71140954 120.91608598 110.71574483 118.79530751 110.72050476 116.67453003 C110.72795549 112.23457308 110.72768408 107.79469566 110.72241211 103.35473633 C110.71662038 97.6800597 110.73354709 92.00570976 110.75675678 86.33108711 C110.77152711 81.95232253 110.7723613 77.57363601 110.76924706 73.19485092 C110.76975865 71.1033857 110.77496585 69.01191593 110.78505898 66.92047501 C110.79746942 63.98916983 110.79060393 61.05849325 110.77905273 58.12719727 C110.78669647 57.27288116 110.79434021 56.41856506 110.80221558 55.5383606 C110.74924137 49.42088528 110.08316747 42.75157575 106.13182545 37.80946541 C100.05803986 32.27991852 92.68636637 32.1070438 84.94238281 32.12939453 C84.01947449 32.1242836 83.09656616 32.11917267 82.14569092 32.11390686 C79.11024396 32.1000648 76.07502545 32.10096365 73.03955078 32.10327148 C70.91877153 32.09938148 68.79799305 32.09504618 66.67721558 32.09028625 C62.23725863 32.08283553 57.79738121 32.08310693 53.35742188 32.08837891 C47.68274524 32.09417064 42.00839531 32.07724393 36.33377266 32.05403423 C31.95500807 32.03926391 27.57632156 32.03842972 23.19753647 32.04154396 C21.10607125 32.04103237 19.01460148 32.03582516 16.92316055 32.02573204 C13.99185538 32.01332159 11.0611788 32.02018708 8.12988281 32.03173828 C6.84840866 32.02027267 6.84840866 32.02027267 5.54104614 32.00857544 C-1.25862551 32.06745712 -8.72042706 32.87026694 -13.53076172 38.15405273 Z " fill="#000000" transform="translate(97.59326171875,47.595947265625)"/>
<path d="M0 0 C4.97447267 2.3095766 7.31899945 5.280301 10 10 C10.48101807 13.3789978 10.48101807 13.3789978 10.45410156 17.10693359 C10.45468567 17.79055969 10.45526978 18.47418579 10.45587158 19.17852783 C10.45310371 21.41902975 10.42207681 23.65817051 10.390625 25.8984375 C10.38315791 27.45927199 10.37746719 29.02011589 10.37347412 30.58096313 C10.35825441 34.67468478 10.31900507 38.76783222 10.2746582 42.86132812 C10.23362584 47.04419183 10.21544617 51.22714898 10.1953125 55.41015625 C10.15250648 63.60703335 10.08430054 71.8034451 10 80 C10.86364166 79.99111755 11.72728333 79.98223511 12.61709595 79.9730835 C20.7679158 79.89283661 28.91860241 79.83198435 37.06972694 79.79275131 C41.26003538 79.77190282 45.45001659 79.74363584 49.64013672 79.69824219 C53.68612242 79.65468581 57.73179395 79.6308423 61.77799606 79.62049103 C63.31934935 79.61311714 64.86068602 79.59871743 66.40190506 79.57707977 C68.56599936 79.54791389 70.72880625 79.54404924 72.89306641 79.54589844 C74.12328522 79.53701599 75.35350403 79.52813354 76.6210022 79.51898193 C81.79530458 80.25557103 84.84228406 82.78135165 88.375 86.5 C90.77303575 91.66500009 90.75381535 96.4002288 90 102 C87.6904234 106.97447267 84.719699 109.31899945 80 112 C76.6210022 112.48101807 76.6210022 112.48101807 72.89306641 112.45410156 C72.20944031 112.45468567 71.52581421 112.45526978 70.82147217 112.45587158 C68.58097025 112.45310371 66.34182949 112.42207681 64.1015625 112.390625 C62.54072801 112.38315791 60.97988411 112.37746719 59.41903687 112.37347412 C55.32531522 112.35825441 51.23216778 112.31900507 47.13867188 112.2746582 C42.95580817 112.23362584 38.77285102 112.21544617 34.58984375 112.1953125 C26.39296665 112.15250648 18.1965549 112.08430054 10 112 C10.00888245 112.86364166 10.01776489 113.72728333 10.0269165 114.61709595 C10.10716339 122.7679158 10.16801565 130.91860241 10.20724869 139.06972694 C10.22809718 143.26003538 10.25636416 147.45001659 10.30175781 151.64013672 C10.34531419 155.68612242 10.3691577 159.73179395 10.37950897 163.77799606 C10.38688286 165.31934935 10.40128257 166.86068602 10.42292023 168.40190506 C10.45208611 170.56599936 10.45595076 172.72880625 10.45410156 174.89306641 C10.46298401 176.12328522 10.47186646 177.35350403 10.48101807 178.6210022 C9.74442897 183.79530458 7.21864835 186.84228406 3.5 190.375 C-1.66500009 192.77303575 -6.4002288 192.75381535 -12 192 C-16.97447267 189.6904234 -19.31899945 186.719699 -22 182 C-22.48101807 178.6210022 -22.48101807 178.6210022 -22.45410156 174.89306641 C-22.45468567 174.20944031 -22.45526978 173.52581421 -22.45587158 172.82147217 C-22.45310371 170.58097025 -22.42207681 168.34182949 -22.390625 166.1015625 C-22.38315791 164.54072801 -22.37746719 162.97988411 -22.37347412 161.41903687 C-22.35825441 157.32531522 -22.31900507 153.23216778 -22.2746582 149.13867188 C-22.23362584 144.95580817 -22.21544617 140.77285102 -22.1953125 136.58984375 C-22.15250648 128.39296665 -22.08430054 120.1965549 -22 112 C-22.86364166 112.00888245 -23.72728333 112.01776489 -24.61709595 112.0269165 C-32.7679158 112.10716339 -40.91860241 112.16801565 -49.06972694 112.20724869 C-53.26003538 112.22809718 -57.45001659 112.25636416 -61.64013672 112.30175781 C-65.68612242 112.34531419 -69.73179395 112.3691577 -73.77799606 112.37950897 C-75.31934935 112.38688286 -76.86068602 112.40128257 -78.40190506 112.42292023 C-80.56599936 112.45208611 -82.72880625 112.45595076 -84.89306641 112.45410156 C-86.12328522 112.46298401 -87.35350403 112.47186646 -88.6210022 112.48101807 C-93.79530458 111.74442897 -96.84228406 109.21864835 -100.375 105.5 C-102.77303575 100.33499991 -102.75381535 95.5997712 -102 90 C-99.6904234 85.02552733 -96.719699 82.68100055 -92 80 C-88.6210022 79.51898193 -88.6210022 79.51898193 -84.89306641 79.54589844 C-84.20944031 79.54531433 -83.52581421 79.54473022 -82.82147217 79.54412842 C-80.58097025 79.54689629 -78.34182949 79.57792319 -76.1015625 79.609375 C-74.54072801 79.61684209 -72.97988411 79.62253281 -71.41903687 79.62652588 C-67.32531522 79.64174559 -63.23216778 79.68099493 -59.13867188 79.7253418 C-54.95580817 79.76637416 -50.77285102 79.78455383 -46.58984375 79.8046875 C-38.39296665 79.84749352 -30.1965549 79.91569946 -22 80 C-22.00888245 79.13635834 -22.01776489 78.27271667 -22.0269165 77.38290405 C-22.10716339 69.2320842 -22.16801565 61.08139759 -22.20724869 52.93027306 C-22.22809718 48.73996462 -22.25636416 44.54998341 -22.30175781 40.35986328 C-22.34531419 36.31387758 -22.3691577 32.26820605 -22.37950897 28.22200394 C-22.38688286 26.68065065 -22.40128257 25.13931398 -22.42292023 23.59809494 C-22.45208611 21.43400064 -22.45595076 19.27119375 -22.45410156 17.10693359 C-22.46298401 15.87671478 -22.47186646 14.64649597 -22.48101807 13.3789978 C-21.74442897 8.20469542 -19.21864835 5.15771594 -15.5 1.625 C-10.33499991 -0.77303575 -5.5997712 -0.75381535 0 0 Z " fill="#000000" transform="translate(374,272)"/>
</svg>
