<?xml version="1.0" encoding="UTF-8"?>
<svg version="1.1" xmlns="http://www.w3.org/2000/svg" width="512" height="512">
    <path
        d="M0 0 C8.62255971 7.15565121 11.32247547 17.49194931 12.5625 28.25 C13.84923818 52.78666744 12.97857073 84.56523532 -3.55859375 104.28125 C-8.89107418 109.8687139 -14.75207635 113.80660907 -22.4375 115.25 C-24.7704292 115.29342578 -27.10472184 115.30089698 -29.4375 115.25 C-27.94525257 123.99500885 -26.17750701 130.76093229 -18.70507812 136.11401367 C-15.34656182 138.28656348 -11.93811116 140.31567696 -8.4375 142.25 C-7.10067763 143.01407892 -5.76468156 143.77960614 -4.4296875 144.546875 C-3.44226563 145.10890625 -2.45484375 145.6709375 -1.4375 146.25 C7.31141897 139.96872484 12.85148717 130.63137828 18.125 121.4375 C21.09739577 116.26321018 23.95796503 112.59925381 28.72265625 108.91015625 C32.26717526 105.71181108 34.26449059 101.38012102 36.5625 97.25 C43.04935238 86.1197439 43.04935238 86.1197439 49.5625 84.25 C54.88537483 83.51286719 59.10432187 83.56067943 64 85.875 C68.74816902 90.27574202 71.26376269 94.43535433 71.765625 100.84375 C72.18085703 126.58813589 56.36871776 154.64415393 40.5625 174.25 C39.85891357 175.12857666 39.85891357 175.12857666 39.14111328 176.02490234 C30.58756186 186.59768978 21.22068276 195.73858681 10.25 203.8125 C9.67523926 204.24272461 9.10047852 204.67294922 8.50830078 205.11621094 C4.87712684 207.7040409 2.04859888 209.19241208 -2.4375 209.25 C-5.05837027 208.37731193 -7.34497044 207.48959917 -9.8125 206.3125 C-10.45316406 206.02181641 -11.09382812 205.73113281 -11.75390625 205.43164062 C-13.32139289 204.71808327 -14.88037785 203.98590019 -16.4375 203.25 C-16.37691406 203.89960693 -16.31632813 204.54921387 -16.25390625 205.21850586 C-15.97753838 208.20779638 -15.7074825 211.19762628 -15.4375 214.1875 C-15.29441406 215.71987305 -15.29441406 215.71987305 -15.1484375 217.28320312 C-14.61003448 223.30177969 -14.33668888 229.20763352 -14.4375 235.25 C-13.71191895 235.42015625 -12.98633789 235.5903125 -12.23876953 235.765625 C19.63573852 243.45682669 69.42165625 257.98442048 88.8671875 287.2109375 C92.28873225 293.52955663 93.61849026 300.11639917 93.5625 307.25 C94.12056965 307.24539104 94.6786393 307.24078207 95.25362015 307.23603344 C108.8325744 307.1256126 122.41145 307.04319129 135.99075699 306.99093914 C142.55764723 306.96482231 149.12421395 306.92938501 155.69091797 306.87280273 C162.02569518 306.81855916 168.3601608 306.78859519 174.69515228 306.77561378 C177.1145595 306.76636028 179.53394927 306.74829071 181.95322418 306.72134972 C185.33670687 306.68516273 188.71889466 306.68005053 192.10253906 306.68237305 C193.10738846 306.66439667 194.11223785 306.64642029 195.14753723 306.62789917 C201.93002469 306.67842608 201.93002469 306.67842608 205.11491394 309.55664062 C207.42206311 313.84929169 207.42206311 313.84929169 208.18383789 315.91137695 C208.57292076 316.94237518 208.57292076 316.94237518 208.96986389 317.99420166 C209.23891037 318.73474792 209.50795685 319.47529419 209.78515625 320.23828125 C210.23253395 321.43139923 210.23253395 321.43139923 210.68894958 322.64862061 C211.67579744 325.2836115 212.65036438 327.92297029 213.625 330.5625 C215.03692136 334.35123694 216.45642987 338.13708934 217.87890625 341.921875 C218.25008575 342.91087296 218.62126526 343.89987091 219.00369263 344.9188385 C221.84622842 352.45205113 224.81725846 359.92803913 227.83984375 367.390625 C228.27627701 368.47252609 228.71271027 369.55442719 229.16236877 370.66911316 C231.74346763 377.0661209 231.74346763 377.0661209 234.35476685 383.45083618 C235.57310259 386.41109021 236.77240734 389.37845973 237.96875 392.34765625 C238.33358994 393.21791443 238.69842987 394.08817261 239.07432556 394.98480225 C241.09978237 400.06645322 243.22761468 405.80121398 241.5625 411.25 C238.20255494 414.68920517 235.71231864 415.71072952 230.90492868 415.78174233 C230.17186801 415.77237767 229.43880734 415.76301301 228.68353271 415.75336456 C227.49695265 415.76208521 227.49695265 415.76208521 226.28640127 415.77098203 C223.62519712 415.78562589 220.96490897 415.77167662 218.30371094 415.75793457 C216.38079734 415.76254175 214.45788727 415.76889344 212.53498459 415.77684355 C207.24270561 415.79358504 201.95071411 415.78526858 196.65843391 415.77289867 C190.95419463 415.76387022 185.25000573 415.77780694 179.54577637 415.78881836 C168.36793709 415.80663175 157.19020506 415.80275103 146.01236153 415.7911678 C136.93022911 415.78214484 127.84812682 415.78090454 118.76599121 415.78526306 C117.47479394 415.78587599 116.18359666 415.78648893 114.8532722 415.78712043 C112.23046652 415.7883993 109.60766084 415.78969615 106.98485518 415.7910108 C83.07609637 415.80209929 59.16739861 415.79058798 35.25864953 415.76964041 C13.42630789 415.75065755 -8.40594043 415.75235604 -30.23828125 415.77148438 C-54.75922177 415.79289644 -79.28010234 415.80132615 -103.80105209 415.78903532 C-106.41436512 415.78776108 -109.02767816 415.7865036 -111.64099121 415.78526306 C-113.56983654 415.78433741 -113.56983654 415.78433741 -115.53764844 415.78339306 C-124.61190367 415.77993518 -133.68612586 415.78577792 -142.76037598 415.79518127 C-153.81452016 415.8063842 -164.86855069 415.80339714 -175.92268181 415.7820583 C-181.56579216 415.77152494 -187.20871283 415.76746499 -192.8518219 415.78065491 C-198.01346354 415.79253726 -203.17473889 415.78608502 -208.3363471 415.7647447 C-210.20773756 415.76026096 -212.0791587 415.76258436 -213.95052958 415.77224785 C-216.48697567 415.78434522 -219.02215373 415.77200541 -221.55853271 415.75336456 C-222.65812372 415.76741156 -222.65812372 415.76741156 -223.77992868 415.78174233 C-228.59028126 415.71068576 -231.08421733 414.70094557 -234.4375 411.25 C-235.73866375 407.66097133 -235.51448355 405.50986581 -234.00390625 402.0625 C-233.62637207 401.18722656 -233.24883789 400.31195313 -232.85986328 399.41015625 C-232.3904834 398.36730469 -231.92110352 397.32445312 -231.4375 396.25 C-230.86524984 394.95724044 -230.29350781 393.66425589 -229.72216797 392.37109375 C-227.62860411 387.6540195 -225.50222388 382.95196691 -223.375 378.25 C-222.58637433 376.50355933 -221.79788405 374.75705751 -221.00952148 373.01049805 C-219.34956153 369.33381565 -217.68826164 365.65774193 -216.02636719 361.98193359 C-213.83084834 357.12381961 -211.64244647 352.26253473 -209.4563446 347.400177 C-207.7250054 343.55018832 -205.99105609 339.7013786 -204.25662231 335.8527832 C-203.42252036 334.00069076 -202.58940186 332.14815508 -201.7572937 330.29516602 C-200.59241076 327.70196392 -199.42362562 325.11055463 -198.25390625 322.51953125 C-197.73940414 321.37059135 -197.73940414 321.37059135 -197.21450806 320.19844055 C-192.93652021 310.74902021 -192.93652021 310.74902021 -189.4375 307.25 C-186.80526733 306.9715271 -186.80526733 306.9715271 -183.42724609 306.93115234 C-181.53551163 306.90134781 -181.53551163 306.90134781 -179.6055603 306.87094116 C-178.22402115 306.85906386 -176.84248014 306.84740105 -175.4609375 306.8359375 C-174.05130876 306.8172329 -172.64169129 306.79766002 -171.23208618 306.7772522 C-167.52004638 306.72584988 -163.80797023 306.68626781 -160.09576416 306.64910889 C-156.30854241 306.60911978 -152.52147285 306.55800429 -148.734375 306.5078125 C-141.30218762 306.41095743 -133.86992683 306.32658363 -126.4375 306.25 C-126.72239792 305.42739685 -127.00729584 304.6047937 -127.30082703 303.75726318 C-129.6208309 296.72349542 -131.024603 290.65681781 -130.76953125 283.265625 C-130.75364456 282.34332092 -130.73775787 281.42101685 -130.72138977 280.47076416 C-130.65627282 277.39554512 -130.55215827 274.32375747 -130.4375 271.25 C-130.39816345 270.14648193 -130.3588269 269.04296387 -130.31829834 267.90600586 C-129.99561179 259.26671682 -129.57062767 250.63369964 -129.125 242 C-129.05698325 240.65830205 -128.98911355 239.31659665 -128.92138672 237.97488403 C-128.0557439 220.87122188 -127.11264603 203.77298216 -125.9375 186.6875 C-125.88387299 185.87446411 -125.83024597 185.06142822 -125.7749939 184.22375488 C-124.73103077 168.60617875 -123.2580491 152.62612687 -118.8125 137.5625 C-118.56089111 136.70293701 -118.30928223 135.84337402 -118.05004883 134.95776367 C-113.93061321 121.66193855 -107.59146488 109.89720508 -97.4375 100.25 C-96.85355469 99.66992188 -96.26960937 99.08984375 -95.66796875 98.4921875 C-88.76245118 92.05566292 -80.61873391 88.8789286 -71.4375 87.25 C-71.96859375 86.37859375 -72.4996875 85.5071875 -73.046875 84.609375 C-84.56364688 65.36030238 -88.43729805 43.41427699 -84.19921875 21.171875 C-81.91293332 12.40191858 -78.49205041 3.21648606 -70.4453125 -1.77734375 C-50.41916523 -11.47872638 -18.93845253 -13.02682342 0 0 Z M-64.6875 15.875 C-69.52527416 25.20499302 -68.4375 33.31804612 -68.4375 44.25 C-46.9875 44.25 -25.5375 44.25 -3.4375 44.25 C-2.90699553 27.81020644 -2.90699553 27.81020644 -9.4375 13.25 C-22.86963863 5.04578431 -53.47782027 2.79704031 -64.6875 15.875 Z M-66.4375 60.25 C-60.07582363 76.15419093 -50.08590928 89.46886438 -34.4375 97.25 C-29.76050583 98.80899806 -25.36989501 99.03215988 -20.8125 97.1875 C-11.45976787 89.55763958 -6.92047219 78.1359114 -5.4375 66.25 C-5.4375 64.27 -5.4375 62.29 -5.4375 60.25 C-25.5675 60.25 -45.6975 60.25 -66.4375 60.25 Z M-89.7265625 115.828125 C-103.96713244 134.49553878 -107.21429589 158.28513951 -108.9375 181.0625 C-109.02555405 182.18328949 -109.02555405 182.18328949 -109.11538696 183.32672119 C-111.64195069 215.74072587 -113.50673574 248.36148542 -113.9375 280.875 C-113.96803467 282.03821777 -113.99856934 283.20143555 -114.0300293 284.39990234 C-114.03309387 292.43767733 -112.14984739 299.02405901 -106.75927734 305.16040039 C-102.6570023 309.14606836 -98.04404022 311.29642311 -92.4375 312.25 C-83.72287522 312.06658169 -74.99933401 310.78129796 -66.359375 309.69140625 C-63.87241127 309.38464042 -61.38543157 309.07800406 -58.8984375 308.77148438 C-55.06192143 308.29520539 -51.22562483 307.81727663 -47.38964844 307.33666992 C-26.88694753 304.77449574 -6.36601471 302.32917651 14.3125 301.9375 C15.07681335 301.91936752 15.84112671 301.90123505 16.62860107 301.8825531 C21.09612048 301.89113602 24.07327186 302.37768863 27.5625 305.25 C28.6875 308.625 28.6875 308.625 28.5625 312.25 C25.98772554 315.60706095 24.5841954 317.10801632 20.33349609 317.69873047 C19.13805176 317.63057129 17.94260742 317.56241211 16.7109375 317.4921875 C15.36442629 317.44276496 14.01772511 317.39830991 12.67089844 317.35839844 C11.98620483 317.33434937 11.30151123 317.31030029 10.59606934 317.28552246 C4.78385626 317.18399452 -1.02850629 317.85942329 -6.8125 318.375 C-7.8833786 318.46754059 -7.8833786 318.46754059 -8.97589111 318.56195068 C-23.62521263 319.83887463 -38.21873629 321.58144744 -52.8125 323.375 C-54.44744415 323.57588226 -54.44744415 323.57588226 -56.11541748 323.78082275 C-59.23102625 324.16559141 -62.34610997 324.55427355 -65.4609375 324.9453125 C-66.39591064 325.06189209 -67.33088379 325.17847168 -68.29418945 325.29858398 C-69.16309814 325.40904053 -70.03200684 325.51949707 -70.92724609 325.63330078 C-72.05796036 325.77628098 -72.05796036 325.77628098 -73.21151733 325.92214966 C-75.63437056 326.27899577 -78.03606676 326.76971335 -80.4375 327.25 C-80.4375 335.83 -80.4375 344.41 -80.4375 353.25 C-16.13388667 353.47707627 -16.13388667 353.47707627 48.125 351.3125 C48.87039032 351.2749762 49.61578064 351.23745239 50.38375854 351.1987915 C63.40117744 351.13313251 63.40117744 351.13313251 74.4375 345.5 C82.69491281 332.87101571 79.47521172 315.45045056 76.65625 301.41015625 C74.41890165 291.92751954 65.92764226 286.79608999 58.0703125 281.8828125 C35.26370258 268.24366526 9.30536448 258.96674243 -16.2277832 251.97387695 C-17.23542725 251.68601318 -18.24307129 251.39814941 -19.28125 251.1015625 C-20.59899414 250.74312256 -20.59899414 250.74312256 -21.94335938 250.37744141 C-25.47672726 248.78023185 -27.12569646 247.41529277 -29.4375 244.25 C-30.36148536 240.47092751 -30.57687389 236.70024134 -30.80078125 232.82421875 C-30.88249069 231.72149124 -30.96420013 230.61876373 -31.04838562 229.48262024 C-31.30379934 225.96871695 -31.52728486 222.45361224 -31.75 218.9375 C-31.91782004 216.55128354 -32.0877178 214.16521223 -32.25976562 211.77929688 C-32.67644571 205.93766642 -33.06695203 200.09472821 -33.4375 194.25 C-34.51233643 193.7559668 -35.58717285 193.26193359 -36.69458008 192.75292969 C-40.68595426 190.91491846 -44.67068089 189.06287218 -48.65356445 187.20654297 C-50.37737164 186.40550347 -52.10295142 185.60826699 -53.83032227 184.81494141 C-56.31483631 183.67307962 -58.7926267 182.51763328 -61.26953125 181.359375 C-62.04150345 181.00816589 -62.81347565 180.65695679 -63.60884094 180.29510498 C-70.54704371 177.02061036 -70.54704371 177.02061036 -72.4375 173.25 C-72.37189072 169.510271 -72.20095433 167.1896361 -69.8125 164.25 C-66.00473386 162.64673004 -62.40356955 163.52751993 -58.57467651 164.93453979 C-56.5749777 165.81480562 -54.61312889 166.75102332 -52.65234375 167.71484375 C-51.55687225 168.23913467 -51.55687225 168.23913467 -50.43927002 168.77401733 C-48.88340358 169.51971615 -47.32949763 170.26951729 -45.7774353 171.02310181 C-43.35799891 172.19573999 -40.93185471 173.35323468 -38.50317383 174.5065918 C-31.44688637 177.86147226 -24.41191427 181.25131134 -17.421875 184.7421875 C-15.48962027 185.68236758 -13.55733203 186.6224788 -11.625 187.5625 C-10.34967407 188.2285022 -10.34967407 188.2285022 -9.04858398 188.90795898 C-6.80523508 189.98488609 -4.88704981 190.8176053 -2.4375 191.25 C0.67656115 190.07424876 2.12322705 189.30090991 4.5625 187.25 C5.14684814 186.77232178 5.73119629 186.29464355 6.33325195 185.80249023 C8.21458111 184.19053956 10.01768178 182.52013393 11.8125 180.8125 C12.4629126 180.19705322 13.1133252 179.58160645 13.78344727 178.94750977 C24.10551751 169.02893286 33.34974731 158.19059951 39.55078125 145.17578125 C39.76499388 142.99961969 39.76499388 142.99961969 37.69140625 140.890625 C36.84449219 140.10171875 35.99757813 139.3128125 35.125 138.5 C34.28066406 137.70078125 33.43632812 136.9015625 32.56640625 136.078125 C31.57447266 135.17320312 31.57447266 135.17320312 30.5625 134.25 C27.99798188 137.41310129 25.53446439 140.63296336 23.11303711 143.90649414 C16.81933511 152.32498766 9.42053966 161.94402837 -1.4375 164.25 C-7.78252472 164.10035319 -11.08649717 161.76671905 -15.8125 157.9375 C-17.22221123 156.83760086 -18.63372982 155.74001497 -20.046875 154.64453125 C-20.76939453 154.08072754 -21.49191406 153.51692383 -22.23632812 152.93603516 C-25.77189797 150.22788905 -29.41240026 147.67553683 -33.0625 145.125 C-34.11642944 144.38479614 -34.11642944 144.38479614 -35.19165039 143.62963867 C-37.272554 142.16826095 -39.35489936 140.70895794 -41.4375 139.25 C-44.04570791 137.42232338 -46.64956994 135.58872277 -49.25 133.75 C-49.8186377 133.35280762 -50.38727539 132.95561523 -50.97314453 132.54638672 C-59.02173162 126.84275975 -59.02173162 126.84275975 -59.96875 123.21484375 C-59.92013421 120.06089459 -59.86203245 117.81604326 -57.9375 115.25 C-54.31670862 113.80168345 -51.32466564 114.05564172 -47.4375 114.25 C-49.55603529 109.30675098 -52.01951225 105.35969981 -56.4375 102.25 C-68.72164046 98.43768055 -81.79967137 106.90022714 -89.7265625 115.828125 Z M53.5625 101.25 C53.11519531 102.04664063 52.66789062 102.84328125 52.20703125 103.6640625 C46.66621831 113.37525276 46.66621831 113.37525276 43.5625 116.75 C41.39518485 118.98812823 41.39518485 118.98812823 41.375 121.3125 C42.61760707 123.33991153 43.80396073 124.38090733 45.63671875 125.87109375 C46.60222656 126.65613281 47.56773437 127.44117188 48.5625 128.25 C53.77634895 115.6654617 53.77634895 115.6654617 55.5625 102.25 C54.9025 101.92 54.2425 101.59 53.5625 101.25 Z M-180.4375 323.25 C-188.81654661 341.50435155 -197.1582013 359.76933387 -205.3125 378.125 C-205.65829102 378.90266724 -206.00408203 379.68033447 -206.36035156 380.48156738 C-207.3430988 382.69286599 -208.32428174 384.90484991 -209.3046875 387.1171875 C-209.73803909 388.09312363 -209.73803909 388.09312363 -210.18014526 389.08877563 C-211.66838065 392.45472397 -213.0698547 395.83088675 -214.4375 399.25 C-70.5575 399.25 73.3225 399.25 221.5625 399.25 C219.1155123 391.03573509 219.1155123 391.03573509 216.26586914 383.02514648 C215.62489037 381.35807899 215.62489037 381.35807899 214.97096252 379.65733337 C214.51777145 378.4903743 214.06458038 377.32341522 213.59765625 376.12109375 C213.1230748 374.89141373 212.64849335 373.6617337 212.15953064 372.39479065 C211.16086005 369.80793509 210.15967165 367.22207392 209.15649414 364.63696289 C207.88048435 361.34846672 206.60981887 358.0579379 205.34092045 354.76669216 C204.11644071 351.59221345 202.88820358 348.41919411 201.66015625 345.24609375 C201.20898941 344.07711044 200.75782257 342.90812714 200.29298401 341.70372009 C199.86251266 340.59549393 199.43204132 339.48726776 198.98852539 338.34545898 C198.61562881 337.38300766 198.24273224 336.42055634 197.85853577 335.42893982 C196.18728292 331.32966081 194.36042203 327.29532456 192.5625 323.25 C160.5525 323.25 128.5425 323.25 95.5625 323.25 C94.0775 333.15 94.0775 333.15 92.5625 343.25 C87.99945652 353.51684783 87.99945652 353.51684783 85.3125 356.5625 C84.79171875 357.17738281 84.2709375 357.79226563 83.734375 358.42578125 C77.58224872 363.59312472 71.36004972 364.92426124 63.5 365.4375 C62.67951172 365.50646484 61.85902344 365.57542969 61.01367188 365.64648438 C41.75056259 367.15207436 22.38867096 367.44864327 3.078125 367.78515625 C0.71595863 367.82834416 -1.64620357 367.87176017 -4.00836182 367.91539001 C-8.90919045 368.00532966 -13.81004735 368.09340982 -18.7109375 368.17993164 C-24.96780284 368.2904216 -31.22459938 368.40435595 -37.48138046 368.51950932 C-42.3388308 368.60875747 -47.19630117 368.69686959 -52.0537796 368.78457451 C-54.36129351 368.82624586 -56.66880397 368.86810854 -58.97631073 368.91017342 C-62.19740564 368.96858798 -65.41852187 369.02563666 -68.63964844 369.08227539 C-69.57384613 369.09940582 -70.50804382 369.11653625 -71.47055054 369.13418579 C-73.23987856 369.16474664 -75.00928346 369.19119483 -76.77873993 369.2130909 C-78.65671869 369.23916114 -80.53452324 369.27970173 -82.41199493 369.33053398 C-83.87242847 369.35773364 -83.87242847 369.35773364 -85.36236572 369.38548279 C-86.23946323 369.40717246 -87.11656075 369.42886213 -88.02023697 369.45120907 C-90.65706314 369.23172392 -92.22179326 368.67808579 -94.4375 367.25 C-95.484375 365.0859375 -95.484375 365.0859375 -96.1875 362.625 C-96.42984375 361.80773437 -96.6721875 360.99046875 -96.921875 360.1484375 C-97.09203125 359.52195312 -97.2621875 358.89546875 -97.4375 358.25 C-111.9017273 357.61082793 -122.72893431 360.52709854 -135.4375 367.25 C-143.66114647 371.42567142 -151.79104599 372.93531322 -160.90234375 370.625 C-165.57152078 368.67733584 -167.88552566 365.96691385 -169.81640625 361.32421875 C-171.37427164 356.12153622 -170.7235772 351.41564073 -168.671875 346.421875 C-164.71942645 339.4675668 -158.34729898 333.89800837 -152.26171875 328.8203125 C-150.22576179 327.06773285 -148.33705997 325.14955997 -146.4375 323.25 C-157.6575 323.25 -168.8775 323.25 -180.4375 323.25 Z M-134.83691406 335.86767578 C-136.58121762 337.37411976 -138.39220121 338.74683148 -140.2421875 340.12109375 C-148.09491403 345.90651647 -148.09491403 345.90651647 -154.4375 353.25 C-154.4375 354.24 -154.4375 355.23 -154.4375 356.25 C-148.68875792 355.74913431 -144.5886215 354.0699961 -139.5 351.4375 C-125.40662107 344.53760055 -112.02561781 342.61083606 -96.4375 342.25 C-96.4375 337.63 -96.4375 333.01 -96.4375 328.25 C-117.17815355 326.5901083 -117.17815355 326.5901083 -134.83691406 335.86767578 Z "
        transform="
    translate(252.4375,52.75)" />
</svg>