<svg
  width="64"
  height="40"
  viewBox="0 0 64 40"
  fill="none"
  xmlns="http://www.w3.org/2000/svg"
>
  <!-- Central dome -->
  <path
    d="M20 28C20 18 32 8 32 8C32 8 44 18 44 28"
    stroke="currentColor"
    strokeWidth="1.5"
    fill="currentColor"
    fillOpacity="0.1"
  />
  <!-- Left minaret -->
  <rect x="12" y="16" width="3" height="24" rx="1" fill="currentColor" fillOpacity="0.6" />
  <circle cx="13.5" cy="15" r="2" fill="currentColor" fillOpacity="0.6" />
  <!-- Right minaret -->
  <rect x="49" y="16" width="3" height="24" rx="1" fill="currentColor" fillOpacity="0.6" />
  <circle cx="50.5" cy="15" r="2" fill="currentColor" fillOpacity="0.6" />
  <!-- Base -->
  <rect x="18" y="28" width="28" height="12" rx="1" fill="currentColor" fillOpacity="0.15" />
  <!-- Door -->
  <path
    d="M29 40V34C29 32.3431 30.3431 31 32 31C33.6569 31 35 32.3431 35 34V40"
    stroke="currentColor"
    strokeWidth="1.5"
    fill="currentColor"
    fillOpacity="0.05"
  />
  <!-- Crescent on dome -->
  <path
    d="M31 7C31 5.5 32 4 32 4C32 4 31.2 5 31.5 6C31.8 7 32.5 7.3 32.5 7.3C32.5 7.3 31 8.5 31 7Z"
    fill="currentColor"
  />
</svg>